<svg id="svg" version="1.1" xmlns="http://www.w3.org/2000/svg" xmlns:xlink="http://www.w3.org/1999/xlink" width="400" height="400.5376344086021" viewBox="0, 0, 400,400.5376344086021"><g id="svgg"><path id="path0" d="M92.400 0.263 C 91.410 0.336,88.800 0.611,86.600 0.875 C 84.400 1.138,82.375 1.311,82.100 1.259 C 81.825 1.207,81.600 1.331,81.600 1.534 C 81.600 1.737,80.213 2.109,78.518 2.361 C 76.822 2.613,75.337 2.956,75.218 3.123 C 75.098 3.290,73.831 3.662,72.401 3.949 C 70.972 4.237,69.712 4.607,69.601 4.771 C 69.491 4.936,68.502 5.293,67.405 5.565 C 66.308 5.837,65.228 6.208,65.005 6.390 C 64.782 6.573,63.835 6.926,62.900 7.176 C 61.965 7.426,61.200 7.796,61.200 7.997 C 61.200 8.199,60.570 8.482,59.800 8.626 C 59.030 8.771,58.400 9.020,58.400 9.180 C 58.400 9.341,57.680 9.710,56.800 10.000 C 55.920 10.290,55.200 10.665,55.200 10.832 C 55.200 11.000,54.675 11.252,54.033 11.393 C 53.392 11.534,52.781 11.873,52.676 12.146 C 52.571 12.420,51.746 12.888,50.843 13.186 C 49.939 13.484,49.200 13.877,49.200 14.059 C 49.200 14.240,48.615 14.668,47.900 15.009 C 45.464 16.170,44.400 16.843,44.400 17.222 C 44.400 17.430,44.140 17.600,43.823 17.600 C 43.505 17.600,43.010 17.915,42.723 18.300 C 42.435 18.685,41.705 19.255,41.100 19.568 C 40.495 19.880,40.000 20.285,40.000 20.468 C 40.000 20.650,39.732 20.800,39.403 20.800 C 39.075 20.800,38.582 21.160,38.307 21.600 C 38.032 22.040,37.645 22.400,37.445 22.400 C 37.246 22.400,36.232 23.165,35.192 24.100 C 34.152 25.035,32.752 26.279,32.082 26.865 C 31.411 27.450,30.968 28.035,31.098 28.165 C 31.227 28.294,31.150 28.400,30.926 28.400 C 30.429 28.400,25.600 33.134,25.600 33.621 C 25.600 33.812,24.880 34.634,24.000 35.448 C 23.120 36.262,22.400 37.064,22.400 37.230 C 22.400 37.396,21.786 38.163,21.037 38.935 C 20.287 39.707,19.541 40.758,19.379 41.270 C 19.218 41.781,18.751 42.435,18.343 42.723 C 17.934 43.010,17.600 43.505,17.600 43.823 C 17.600 44.140,17.430 44.400,17.222 44.400 C 16.843 44.400,16.170 45.464,15.009 47.900 C 14.668 48.615,14.248 49.200,14.075 49.200 C 13.902 49.200,13.533 49.830,13.254 50.600 C 12.976 51.370,12.587 52.000,12.390 52.000 C 12.193 52.000,11.816 52.720,11.553 53.600 C 11.289 54.480,10.929 55.200,10.753 55.200 C 10.576 55.200,10.216 55.920,9.953 56.800 C 9.689 57.680,9.330 58.400,9.155 58.400 C 8.980 58.400,8.718 59.030,8.574 59.800 C 8.429 60.570,8.150 61.200,7.954 61.200 C 7.758 61.200,7.380 62.010,7.116 63.000 C 6.851 63.990,6.504 64.800,6.346 64.800 C 6.187 64.800,5.836 65.790,5.565 67.000 C 5.294 68.210,4.941 69.200,4.780 69.200 C 4.619 69.200,4.254 70.370,3.970 71.800 C 3.686 73.230,3.331 74.400,3.181 74.400 C 3.032 74.400,2.687 75.782,2.415 77.470 C 2.142 79.159,1.764 80.824,1.575 81.170 C 0.291 83.521,0.239 87.651,0.111 196.928 C -0.020 309.712,0.075 317.382,1.618 318.800 C 1.737 318.910,2.071 320.440,2.360 322.200 C 2.648 323.960,3.015 325.490,3.174 325.600 C 3.334 325.710,3.700 326.925,3.987 328.300 C 4.274 329.675,4.645 330.800,4.810 330.800 C 4.976 330.800,5.237 331.475,5.392 332.300 C 5.546 333.125,6.038 334.602,6.484 335.582 C 6.930 336.562,7.326 337.579,7.365 337.842 C 7.404 338.104,7.638 338.563,7.885 338.862 C 8.133 339.160,8.460 339.898,8.611 340.502 C 8.763 341.106,9.027 341.600,9.199 341.600 C 9.371 341.600,9.628 342.224,9.771 342.987 C 9.914 343.750,10.260 344.605,10.540 344.887 C 10.820 345.169,11.307 345.985,11.622 346.700 C 11.937 347.415,12.298 348.000,12.423 348.000 C 12.548 348.000,12.898 348.630,13.200 349.400 C 13.502 350.170,13.878 350.800,14.036 350.800 C 14.193 350.800,14.510 351.340,14.740 352.000 C 14.970 352.660,15.314 353.200,15.505 353.200 C 15.695 353.200,16.095 353.823,16.393 354.583 C 16.692 355.344,17.176 356.059,17.468 356.171 C 17.761 356.283,18.001 356.606,18.002 356.887 C 18.003 357.169,18.552 357.985,19.222 358.700 C 19.892 359.415,20.296 360.005,20.120 360.012 C 19.944 360.019,20.115 360.208,20.500 360.432 C 20.885 360.656,21.200 361.027,21.200 361.256 C 21.200 361.905,35.066 376.400,35.687 376.400 C 35.821 376.400,36.622 377.028,37.466 377.796 C 39.675 379.807,40.099 380.135,41.312 380.768 C 41.910 381.080,42.400 381.463,42.400 381.619 C 42.400 381.775,42.940 382.127,43.600 382.400 C 44.260 382.673,44.800 383.033,44.800 383.200 C 44.800 383.367,45.340 383.727,46.000 384.000 C 46.660 384.273,47.200 384.633,47.200 384.800 C 47.200 384.967,47.740 385.327,48.400 385.600 C 49.060 385.873,49.600 386.255,49.600 386.449 C 49.600 386.642,49.735 386.771,49.900 386.735 C 50.422 386.623,52.400 387.565,52.400 387.926 C 52.400 388.116,53.120 388.510,54.000 388.800 C 54.880 389.090,55.600 389.451,55.600 389.601 C 55.600 389.751,56.320 390.089,57.200 390.353 C 58.080 390.616,58.800 391.005,58.800 391.216 C 58.800 391.427,59.095 391.600,59.456 391.600 C 59.817 391.600,60.852 391.936,61.756 392.346 C 66.073 394.305,67.100 394.714,68.400 394.992 C 69.170 395.157,69.980 395.432,70.200 395.602 C 70.420 395.772,71.680 396.145,73.000 396.431 C 74.320 396.717,75.495 397.088,75.612 397.256 C 75.728 397.424,77.483 397.783,79.512 398.053 C 81.540 398.323,83.200 398.669,83.200 398.822 C 83.200 400.079,93.443 400.200,200.200 400.200 C 307.138 400.200,316.800 400.085,316.800 398.817 C 316.800 398.667,318.460 398.323,320.488 398.053 C 322.517 397.783,324.272 397.413,324.388 397.230 C 324.505 397.047,325.410 396.769,326.400 396.611 C 327.390 396.453,328.693 396.086,329.296 395.795 C 329.899 395.504,330.979 395.143,331.696 394.993 C 332.871 394.749,333.821 394.371,337.800 392.571 C 338.460 392.272,339.495 391.912,340.100 391.770 C 340.705 391.629,341.200 391.360,341.200 391.173 C 341.200 390.985,341.920 390.616,342.800 390.353 C 343.680 390.089,344.400 389.729,344.400 389.553 C 344.400 389.376,345.120 389.016,346.000 388.753 C 346.880 388.489,347.600 388.155,347.600 388.011 C 347.600 387.867,348.230 387.502,349.000 387.200 C 349.770 386.898,350.400 386.526,350.400 386.374 C 350.400 386.222,350.940 385.873,351.600 385.600 C 352.260 385.327,352.800 384.967,352.800 384.800 C 352.800 384.633,353.377 384.258,354.083 383.966 C 354.788 383.673,355.643 383.188,355.983 382.888 C 357.758 381.317,359.053 380.401,359.500 380.400 C 359.775 380.400,360.000 380.214,360.000 379.987 C 360.000 379.761,360.315 379.459,360.700 379.316 C 361.587 378.989,362.665 378.070,366.117 374.700 C 367.638 373.215,369.006 372.000,369.158 372.000 C 369.560 372.000,372.400 369.260,372.400 368.872 C 372.400 368.690,373.412 367.475,374.650 366.171 C 378.708 361.895,379.200 361.320,379.200 360.857 C 379.200 360.606,379.383 360.400,379.606 360.400 C 379.830 360.400,380.313 359.770,380.681 359.000 C 381.048 358.230,381.495 357.600,381.674 357.600 C 381.853 357.600,382.000 357.324,382.000 356.987 C 382.000 356.651,382.239 356.283,382.532 356.171 C 382.824 356.059,383.308 355.344,383.607 354.583 C 383.905 353.823,384.300 353.200,384.485 353.200 C 384.669 353.200,384.991 352.750,385.200 352.200 C 385.409 351.650,385.736 351.200,385.926 351.200 C 386.116 351.200,386.506 350.489,386.793 349.621 C 387.080 348.752,387.542 347.955,387.819 347.848 C 388.097 347.741,388.446 347.102,388.594 346.427 C 388.742 345.752,389.022 345.200,389.216 345.200 C 389.410 345.200,389.763 344.480,390.000 343.600 C 390.237 342.720,390.596 342.000,390.797 342.000 C 390.999 342.000,391.281 341.376,391.424 340.614 C 391.567 339.852,391.930 339.024,392.231 338.774 C 392.532 338.524,392.894 337.708,393.034 336.960 C 393.174 336.212,393.420 335.600,393.581 335.600 C 393.741 335.600,394.110 334.610,394.400 333.400 C 394.690 332.190,395.059 331.200,395.219 331.200 C 395.379 331.200,395.730 330.030,396.000 328.600 C 396.270 327.170,396.615 326.000,396.767 326.000 C 396.919 326.000,397.277 324.605,397.562 322.900 C 397.846 321.195,398.225 319.620,398.404 319.400 C 400.853 316.388,400.879 82.461,398.431 80.801 C 398.268 80.691,397.916 79.256,397.649 77.612 C 397.382 75.969,397.022 74.529,396.849 74.412 C 396.676 74.296,396.300 73.075,396.013 71.700 C 395.726 70.325,395.364 69.200,395.209 69.200 C 395.054 69.200,394.706 68.210,394.435 67.000 C 394.164 65.790,393.776 64.800,393.571 64.800 C 393.367 64.800,393.200 64.508,393.200 64.150 C 393.200 63.458,391.208 58.737,390.774 58.400 C 390.632 58.290,390.296 57.525,390.027 56.700 C 389.758 55.875,389.401 55.200,389.233 55.200 C 389.065 55.200,388.690 54.480,388.400 53.600 C 388.110 52.720,387.732 52.000,387.562 52.000 C 387.391 52.000,387.024 51.370,386.746 50.600 C 386.467 49.830,386.129 49.200,385.994 49.200 C 385.860 49.200,385.502 48.570,385.200 47.800 C 384.898 47.030,384.500 46.400,384.315 46.400 C 384.131 46.400,383.809 45.950,383.600 45.400 C 383.391 44.850,383.035 44.400,382.810 44.400 C 382.584 44.400,382.400 44.204,382.400 43.965 C 382.400 43.386,380.077 40.078,378.700 38.697 C 378.095 38.090,377.600 37.433,377.600 37.238 C 377.600 37.043,376.970 36.330,376.200 35.654 C 375.430 34.978,374.800 34.262,374.800 34.064 C 374.800 33.561,369.589 28.400,369.081 28.400 C 368.853 28.400,368.773 28.294,368.902 28.165 C 369.032 28.035,368.657 27.504,368.069 26.985 C 367.481 26.465,366.100 25.226,365.000 24.231 C 363.900 23.237,362.880 22.418,362.734 22.411 C 362.588 22.405,361.837 21.786,361.065 21.037 C 360.293 20.287,359.242 19.541,358.730 19.379 C 358.219 19.218,357.565 18.751,357.277 18.343 C 356.990 17.934,356.495 17.600,356.177 17.600 C 355.860 17.600,355.600 17.430,355.600 17.222 C 355.600 16.843,354.536 16.170,352.100 15.009 C 351.385 14.668,350.800 14.226,350.800 14.026 C 350.800 13.827,350.248 13.542,349.573 13.394 C 348.898 13.246,348.250 12.873,348.132 12.567 C 348.014 12.260,347.216 11.820,346.359 11.589 C 345.501 11.358,344.800 11.025,344.800 10.849 C 344.800 10.672,344.080 10.290,343.200 10.000 C 342.320 9.710,341.600 9.329,341.600 9.154 C 341.600 8.979,340.970 8.718,340.200 8.574 C 339.430 8.429,338.800 8.158,338.800 7.971 C 338.800 7.784,338.035 7.426,337.100 7.176 C 336.165 6.926,335.218 6.573,334.995 6.390 C 334.772 6.208,333.737 5.845,332.695 5.582 C 331.653 5.320,330.800 4.946,330.800 4.753 C 330.800 4.559,330.665 4.437,330.500 4.481 C 330.049 4.604,325.859 3.541,325.400 3.187 C 325.180 3.017,323.560 2.662,321.800 2.398 C 320.040 2.133,318.510 1.783,318.400 1.620 C 317.602 0.434,107.270 -0.828,92.400 0.263 M210.406 72.439 C 214.563 73.330,217.081 77.853,215.825 82.173 C 214.456 86.882,212.159 87.952,202.400 88.430 C 198.550 88.619,194.770 88.880,194.000 89.011 C 185.637 90.430,183.382 90.863,180.800 91.546 C 176.505 92.681,173.580 93.584,172.200 94.202 C 171.540 94.497,170.472 94.870,169.827 95.031 C 169.181 95.192,168.191 95.565,167.627 95.859 C 167.062 96.154,166.440 96.396,166.244 96.398 C 165.824 96.400,164.329 97.085,157.600 100.357 C 152.409 102.880,152.143 103.024,147.200 105.985 C 131.016 115.680,116.095 131.963,108.331 148.400 C 106.916 151.395,105.660 154.316,104.631 157.000 C 104.041 158.540,103.404 160.160,103.215 160.600 C 102.579 162.083,100.308 170.142,98.988 175.600 C 98.377 178.123,97.482 183.484,96.783 188.800 C 96.339 192.177,96.340 209.439,96.785 212.800 C 97.546 218.553,98.061 221.566,98.869 225.000 C 100.039 229.967,102.281 237.605,103.213 239.800 C 103.400 240.240,104.119 241.950,104.810 243.600 C 110.327 256.760,118.452 268.861,128.591 279.016 C 133.429 283.862,144.750 293.200,145.787 293.200 C 145.909 293.200,146.861 293.790,147.904 294.512 C 152.398 297.623,163.131 303.128,166.800 304.204 C 167.350 304.366,167.980 304.625,168.200 304.781 C 169.052 305.385,175.719 307.544,180.800 308.862 C 191.586 311.658,200.727 312.659,211.623 312.234 C 221.286 311.858,224.411 313.520,224.732 319.203 C 224.968 323.373,224.238 324.902,221.000 327.016 C 219.524 327.980,196.484 328.218,192.400 327.312 C 191.190 327.043,188.400 326.564,186.200 326.246 C 180.962 325.491,172.035 323.406,169.800 322.416 C 169.360 322.222,168.460 321.944,167.800 321.800 C 167.140 321.656,166.060 321.298,165.400 321.004 C 164.740 320.710,163.480 320.250,162.600 319.982 C 161.720 319.715,160.820 319.361,160.600 319.197 C 160.380 319.032,159.750 318.766,159.200 318.606 C 156.128 317.708,142.251 310.358,137.900 307.325 C 136.855 306.596,135.055 305.340,133.900 304.532 C 127.042 299.740,117.537 291.073,112.260 284.800 C 110.687 282.930,109.200 281.220,108.956 281.000 C 108.273 280.385,103.975 274.487,102.250 271.800 C 101.403 270.480,100.400 268.950,100.021 268.400 C 97.933 265.369,93.781 257.566,91.615 252.600 C 91.135 251.500,90.559 250.261,90.335 249.847 C 89.850 248.953,87.497 242.546,86.204 238.600 C 84.464 233.293,82.626 225.642,81.785 220.200 C 81.478 218.220,81.013 215.340,80.752 213.800 C 80.101 209.977,80.100 188.271,80.750 184.800 C 81.017 183.370,81.490 180.352,81.799 178.092 C 82.109 175.833,82.462 173.823,82.584 173.627 C 82.705 173.430,83.064 172.038,83.381 170.534 C 84.448 165.479,87.962 154.107,88.799 153.000 C 88.966 152.780,89.236 152.150,89.399 151.600 C 90.284 148.615,96.854 135.502,98.232 133.969 C 98.545 133.621,98.800 133.220,98.800 133.076 C 98.800 132.774,100.925 129.491,102.992 126.600 C 103.779 125.500,104.730 124.150,105.106 123.600 C 105.482 123.050,105.972 122.404,106.195 122.163 C 106.418 121.923,107.050 121.130,107.600 120.400 C 108.150 119.670,108.780 118.875,109.000 118.633 C 109.220 118.390,110.468 116.958,111.774 115.450 C 115.417 111.243,120.180 106.578,125.013 102.483 C 129.903 98.339,129.469 98.684,132.200 96.788 C 133.300 96.025,134.290 95.303,134.400 95.185 C 134.510 95.067,135.500 94.397,136.600 93.696 C 137.700 92.995,138.780 92.275,139.000 92.095 C 141.839 89.785,155.406 83.061,162.521 80.439 C 166.246 79.067,168.105 78.462,174.305 76.609 C 177.195 75.746,181.475 74.855,186.000 74.174 C 188.090 73.860,190.970 73.410,192.400 73.173 C 194.618 72.807,201.715 72.261,206.880 72.058 C 207.694 72.026,209.281 72.197,210.406 72.439 M225.800 101.213 C 245.067 102.458,247.739 103.445,248.285 109.526 C 249.007 117.574,245.875 119.189,231.585 118.134 C 218.033 117.134,198.218 117.629,195.961 119.024 C 195.788 119.131,194.601 119.402,193.323 119.626 C 186.781 120.775,172.191 125.915,168.400 128.408 C 168.070 128.624,167.402 128.975,166.915 129.185 C 160.764 131.850,150.076 140.952,143.881 148.800 C 142.404 150.670,141.041 152.392,140.850 152.628 C 132.468 162.973,126.624 182.434,126.624 200.000 C 126.624 218.365,130.605 231.567,140.905 247.359 C 149.820 261.028,166.686 272.818,185.000 278.182 C 186.980 278.762,189.193 279.423,189.917 279.650 C 191.092 280.019,193.307 280.420,200.800 281.618 C 207.085 282.623,237.201 282.300,238.600 281.213 C 238.820 281.042,240.890 280.780,243.200 280.631 C 245.510 280.481,248.480 280.191,249.800 279.985 C 251.120 279.780,254.048 279.347,256.308 279.024 C 258.567 278.702,260.554 278.352,260.724 278.247 C 260.894 278.142,262.555 277.773,264.416 277.426 C 267.922 276.773,272.034 275.811,277.200 274.437 C 278.850 273.998,281.280 273.355,282.600 273.007 C 283.920 272.660,285.270 272.229,285.600 272.049 C 285.930 271.869,287.190 271.476,288.400 271.174 C 289.610 270.873,290.690 270.517,290.800 270.383 C 290.910 270.250,291.900 269.901,293.000 269.608 C 294.100 269.315,295.180 268.948,295.400 268.792 C 301.500 264.461,310.000 268.116,310.000 275.069 C 310.000 279.762,307.629 281.691,297.800 284.994 C 296.040 285.585,294.330 286.206,294.000 286.373 C 293.670 286.540,292.410 286.908,291.200 287.191 C 289.990 287.473,288.820 287.838,288.600 288.000 C 288.380 288.162,287.210 288.512,286.000 288.776 C 284.790 289.041,283.440 289.424,283.000 289.627 C 282.560 289.830,280.940 290.282,279.400 290.631 C 277.860 290.980,275.070 291.625,273.200 292.063 C 265.194 293.941,252.776 296.199,248.200 296.608 C 246.660 296.746,243.420 297.157,241.000 297.521 C 234.465 298.505,200.888 298.512,196.200 297.530 C 194.440 297.161,192.010 296.734,190.800 296.580 C 189.590 296.426,188.153 296.131,187.606 295.924 C 187.059 295.718,185.529 295.300,184.206 294.997 C 180.692 294.191,174.329 292.186,172.200 291.213 C 171.760 291.012,170.084 290.285,168.475 289.598 C 165.967 288.527,161.634 286.357,158.000 284.352 C 155.104 282.754,148.925 278.420,145.229 275.395 C 137.555 269.114,126.514 256.276,123.955 250.662 C 123.689 250.078,123.342 249.600,123.184 249.600 C 123.026 249.600,122.660 249.015,122.371 248.300 C 122.082 247.585,121.745 246.910,121.623 246.800 C 121.362 246.566,120.219 244.253,118.172 239.814 C 116.163 235.458,114.652 231.129,113.352 226.000 C 113.045 224.790,112.608 223.227,112.381 222.526 C 110.601 217.042,109.498 199.367,110.389 190.600 C 110.887 185.702,111.920 178.894,112.381 177.474 C 112.608 176.773,113.045 175.210,113.351 174.000 C 118.139 155.100,128.923 138.547,146.021 123.852 C 151.852 118.842,163.403 111.200,165.147 111.200 C 165.396 111.200,165.600 111.020,165.600 110.800 C 165.600 110.580,165.789 110.400,166.019 110.400 C 166.250 110.400,167.195 110.031,168.119 109.580 C 172.199 107.590,181.678 104.315,184.800 103.816 C 185.790 103.658,187.500 103.284,188.600 102.985 C 194.759 101.311,213.500 100.418,225.800 101.213 M81.554 121.976 C 87.035 124.773,87.610 129.361,83.395 136.662 C 82.190 138.748,80.650 141.748,79.972 143.328 C 79.294 144.907,78.483 146.767,78.170 147.460 C 77.856 148.154,77.599 148.964,77.598 149.260 C 77.596 149.557,77.350 150.269,77.051 150.842 C 76.752 151.415,76.290 152.855,76.025 154.042 C 75.760 155.229,75.385 156.560,75.192 157.000 C 74.309 159.014,72.163 170.314,71.127 178.400 C 70.091 186.489,69.643 208.234,70.385 214.400 C 70.636 216.490,71.097 220.540,71.408 223.400 C 72.106 229.816,74.309 241.427,75.204 243.400 C 75.403 243.840,75.772 245.010,76.022 246.000 C 76.273 246.990,76.616 247.980,76.784 248.200 C 76.952 248.420,77.218 249.140,77.376 249.800 C 77.533 250.460,77.902 251.540,78.196 252.200 C 78.490 252.860,79.240 254.570,79.863 256.000 C 80.486 257.430,81.870 260.220,82.939 262.200 C 86.854 269.455,87.042 273.296,83.641 276.518 C 76.528 283.256,68.487 275.780,62.001 256.400 C 61.523 254.970,60.988 253.521,60.812 253.180 C 60.637 252.839,60.262 251.489,59.981 250.180 C 59.699 248.871,59.334 247.620,59.172 247.400 C 59.009 247.180,58.663 245.830,58.404 244.400 C 58.145 242.970,57.777 241.440,57.586 241.000 C 57.394 240.560,57.034 238.760,56.784 237.000 C 56.535 235.240,56.168 233.350,55.970 232.800 C 55.637 231.877,54.821 226.089,53.996 218.800 C 53.564 214.980,53.569 188.562,54.003 183.800 C 54.679 176.382,55.612 168.180,55.847 167.600 C 55.981 167.270,56.414 165.290,56.809 163.200 C 57.715 158.404,58.613 154.551,59.444 151.883 C 61.425 145.528,62.148 143.360,62.404 143.000 C 62.561 142.780,62.819 142.060,62.977 141.400 C 63.534 139.077,70.359 125.751,71.965 123.849 C 74.182 121.223,78.446 120.391,81.554 121.976 M205.000 145.203 C 205.660 145.391,207.145 145.664,208.300 145.810 C 210.857 146.133,210.895 146.188,210.392 148.858 C 209.068 155.883,203.905 160.000,196.419 160.000 C 191.808 160.000,186.586 161.254,181.600 163.558 C 176.570 165.882,170.211 171.388,167.042 176.163 C 165.349 178.713,163.200 182.913,163.200 183.669 C 163.200 183.983,163.026 184.414,162.813 184.627 C 160.915 186.525,160.186 198.651,161.582 205.101 C 163.341 213.228,169.866 222.984,176.273 227.064 C 176.893 227.458,177.490 227.890,177.600 228.022 C 177.837 228.307,181.211 230.079,183.200 230.963 C 194.139 235.824,208.463 234.541,218.200 227.827 C 225.883 222.530,226.696 221.366,237.072 200.800 C 238.792 197.390,240.290 194.510,240.400 194.400 C 240.510 194.290,241.680 192.048,243.000 189.418 C 247.723 180.007,254.290 176.734,261.689 180.104 L 263.977 181.146 263.531 182.473 C 263.285 183.203,262.951 183.980,262.788 184.200 C 262.626 184.420,260.967 187.570,259.102 191.200 C 257.236 194.830,253.847 201.400,251.571 205.800 C 249.294 210.200,246.375 215.870,245.084 218.400 C 241.015 226.372,240.574 227.096,237.693 230.517 C 229.908 239.762,218.634 246.330,207.200 248.282 C 199.741 249.555,194.479 249.435,186.400 247.808 C 180.359 246.591,169.864 242.006,167.600 239.595 C 167.490 239.477,166.950 239.096,166.400 238.747 C 158.914 233.995,149.865 220.625,147.349 210.600 C 147.018 209.280,146.544 207.480,146.296 206.600 C 144.833 201.406,146.384 181.878,148.424 179.820 C 148.631 179.611,148.800 179.136,148.800 178.765 C 148.800 177.507,153.387 169.011,155.781 165.836 C 161.205 158.643,171.817 150.244,177.136 148.935 C 177.721 148.791,178.560 148.450,179.000 148.176 C 179.440 147.902,180.430 147.550,181.200 147.393 C 181.970 147.236,182.792 146.954,183.027 146.765 C 184.936 145.235,201.078 144.088,205.000 145.203 M259.000 145.193 C 259.880 145.394,261.320 145.666,262.200 145.797 C 264.024 146.069,268.813 147.444,270.600 148.208 C 282.802 153.430,291.072 160.609,297.084 171.200 C 300.573 177.347,302.286 182.434,303.616 190.600 C 304.047 193.246,304.032 200.885,303.591 203.400 C 302.586 209.128,302.285 210.442,301.346 213.200 C 297.718 223.851,291.102 232.829,282.128 239.279 C 278.298 242.032,269.877 246.400,268.399 246.400 C 268.181 246.400,266.967 246.754,265.702 247.186 C 262.772 248.186,258.145 248.872,252.800 249.096 C 249.049 249.254,247.444 249.105,241.400 248.038 L 239.800 247.756 239.906 245.784 C 240.015 243.775,241.199 240.076,242.101 238.930 C 243.353 237.339,245.401 235.619,246.546 235.196 C 247.236 234.942,248.113 234.568,248.495 234.367 C 248.877 234.165,250.009 234.000,251.010 234.000 C 253.680 234.000,260.533 233.186,260.999 232.813 C 261.219 232.637,262.030 232.362,262.800 232.202 C 272.425 230.202,283.022 219.722,286.920 208.346 C 288.927 202.485,289.150 188.655,287.275 186.265 C 287.074 186.009,286.784 185.272,286.629 184.627 C 286.152 182.636,283.281 177.243,281.431 174.864 C 266.843 156.100,240.235 154.750,224.297 171.964 C 221.882 174.573,221.039 175.992,215.490 186.800 C 202.870 211.375,203.745 209.801,201.708 211.596 C 198.466 214.453,192.605 215.641,188.949 214.182 C 186.545 213.223,185.600 212.696,185.600 212.314 C 185.600 211.941,188.461 205.939,188.800 205.600 C 188.910 205.490,190.453 202.520,192.229 199.000 C 195.309 192.895,201.398 181.034,206.088 172.000 C 211.709 161.173,220.271 153.399,232.000 148.472 C 239.661 145.254,252.465 143.699,259.000 145.193 M333.906 165.517 C 333.994 165.783,334.297 166.000,334.579 166.000 C 335.683 166.000,340.626 175.057,341.784 179.200 C 341.938 179.750,342.304 180.740,342.599 181.400 C 342.893 182.060,343.262 183.320,343.419 184.200 C 343.576 185.080,343.842 185.980,344.011 186.200 C 344.180 186.420,344.532 188.040,344.794 189.800 C 345.055 191.560,345.434 193.450,345.635 194.000 C 346.799 197.181,346.799 220.408,345.635 223.000 C 345.438 223.440,345.057 225.420,344.790 227.400 C 344.523 229.380,344.172 231.180,344.009 231.400 C 343.847 231.620,343.492 232.970,343.220 234.400 C 342.948 235.830,342.583 237.180,342.409 237.400 C 342.235 237.620,341.961 238.430,341.801 239.200 C 341.641 239.970,341.170 241.355,340.755 242.278 C 340.340 243.201,340.000 244.119,340.000 244.318 C 340.000 245.312,337.443 248.051,335.829 248.787 C 329.943 251.468,323.575 245.632,325.800 239.596 C 326.164 238.608,326.730 236.900,327.057 235.800 C 327.384 234.700,327.807 233.440,327.997 233.000 C 331.038 225.949,332.479 205.939,330.662 196.000 C 329.010 186.969,327.802 183.577,323.041 174.600 C 321.402 171.510,323.137 167.482,327.000 165.406 C 328.430 164.637,333.640 164.721,333.906 165.517 " stroke="none" fill="#1c3464" fill-rule="evenodd"></path><path id="path1" d="M197.400 73.218 C 186.432 74.073,173.789 76.814,164.200 80.413 C 159.309 82.250,156.611 83.307,156.028 83.617 C 155.683 83.800,153.600 84.813,151.400 85.868 C 124.634 98.698,100.846 123.957,90.250 150.800 C 79.554 177.898,77.800 205.554,85.064 232.600 C 86.141 236.614,87.579 241.321,88.179 242.800 C 88.491 243.570,89.198 245.370,89.749 246.800 C 99.142 271.177,119.049 295.381,140.237 308.186 C 147.025 312.289,156.094 316.984,158.800 317.797 C 159.350 317.963,159.980 318.231,160.200 318.395 C 161.311 319.218,174.395 323.332,179.800 324.557 C 191.123 327.123,212.318 328.553,218.711 327.182 C 225.667 325.690,226.767 316.582,220.355 313.579 C 218.642 312.777,218.033 312.720,212.944 312.893 C 196.154 313.463,178.616 310.240,164.600 304.008 C 104.541 277.308,78.991 210.200,106.445 151.261 C 107.300 149.424,108.000 147.836,108.000 147.732 C 108.000 147.359,113.380 138.158,114.743 136.200 C 115.509 135.100,116.510 133.661,116.968 133.003 C 134.649 107.566,167.655 90.162,202.655 87.821 C 213.083 87.124,215.661 85.566,215.570 80.015 C 215.464 73.511,211.699 72.102,197.400 73.218 M201.800 101.879 C 177.359 103.521,157.595 112.688,139.009 131.000 C 128.148 141.702,119.407 155.902,115.004 170.000 C 113.017 176.363,112.232 180.185,111.184 188.600 C 105.209 236.572,135.753 281.330,183.254 294.206 C 202.876 299.525,237.650 299.180,264.400 293.401 C 265.830 293.092,268.800 292.449,271.000 291.973 C 282.040 289.582,298.197 284.740,304.208 282.022 C 309.301 279.720,311.003 274.964,308.234 270.779 C 305.624 266.835,302.633 266.761,292.200 270.380 C 278.696 275.065,264.230 278.654,253.460 279.993 C 251.562 280.228,249.783 280.500,249.505 280.597 C 249.227 280.694,245.772 281.059,241.827 281.408 C 237.882 281.757,234.546 282.110,234.414 282.192 C 233.536 282.734,214.673 283.196,208.728 282.820 C 164.836 280.049,134.505 254.723,127.028 214.600 C 121.355 184.156,134.114 151.526,158.612 133.831 C 168.600 126.617,181.676 121.220,195.525 118.596 C 203.413 117.101,226.896 116.757,237.357 117.983 C 244.453 118.815,248.713 115.352,247.831 109.469 C 247.015 104.023,245.519 103.429,229.000 101.985 C 225.248 101.657,206.208 101.582,201.800 101.879 M75.800 121.887 C 73.227 122.512,71.766 124.470,67.451 133.074 C 57.028 153.861,52.072 185.083,54.353 215.600 C 55.882 236.062,60.693 254.733,68.060 268.800 C 72.660 277.583,76.352 280.082,81.116 277.639 C 86.559 274.848,86.910 270.723,82.413 262.400 C 81.284 260.310,79.818 257.340,79.156 255.800 C 78.495 254.260,77.792 252.640,77.594 252.200 C 69.786 234.776,67.024 197.169,71.621 170.867 C 74.176 156.248,79.912 139.258,83.797 134.800 C 88.740 129.130,83.149 120.102,75.800 121.887 M192.000 145.478 C 156.538 149.285,135.592 188.105,151.682 220.200 C 167.599 251.950,211.230 258.255,235.406 232.298 C 239.286 228.132,240.280 226.604,244.703 218.000 C 252.726 202.393,255.474 197.055,259.248 189.741 C 261.422 185.529,263.200 181.918,263.200 181.718 C 263.200 180.742,259.750 179.800,256.200 179.807 C 250.027 179.819,247.384 181.929,243.157 190.217 C 241.704 193.068,238.577 199.180,236.208 203.800 C 233.839 208.420,231.260 213.460,230.476 215.000 C 227.122 221.594,221.488 227.118,214.773 230.393 C 213.358 231.083,211.914 231.801,211.565 231.987 C 202.780 236.673,185.578 234.473,175.844 227.419 C 146.374 206.063,161.444 159.428,197.885 159.212 C 203.978 159.176,209.394 154.317,209.695 148.616 L 209.800 146.632 208.200 146.311 C 203.373 145.340,196.555 144.989,192.000 145.478 M246.200 145.454 C 232.667 146.948,218.953 154.537,211.097 164.881 C 208.825 167.872,207.961 169.428,200.706 183.600 C 198.398 188.110,194.297 196.120,191.594 201.400 C 188.891 206.680,186.515 211.213,186.313 211.473 C 185.401 212.650,190.986 214.629,194.164 214.256 C 200.427 213.520,201.900 212.007,208.137 199.900 C 213.275 189.925,219.308 178.230,220.466 176.001 C 222.752 171.597,230.711 164.964,236.834 162.358 C 266.599 149.692,297.345 177.955,287.370 208.813 C 283.748 220.020,273.256 230.103,262.230 232.975 C 260.998 233.296,259.815 233.667,259.601 233.799 C 259.387 233.931,256.915 234.195,254.106 234.384 C 245.219 234.984,241.993 237.445,240.582 244.704 C 240.032 247.538,239.619 247.133,243.920 247.982 C 266.816 252.502,292.719 236.772,300.616 213.553 C 312.643 178.193,283.217 141.369,246.200 145.454 M327.800 165.618 C 324.070 166.837,322.048 171.638,323.847 175.000 C 333.889 193.759,335.026 213.966,327.324 236.743 C 324.776 244.279,326.849 248.800,332.854 248.800 C 336.813 248.800,338.616 246.901,340.825 240.400 C 349.196 215.778,347.353 187.164,336.202 168.600 C 334.531 165.818,331.011 164.568,327.800 165.618 " stroke="none" fill="#e2b22c" fill-rule="evenodd"></path><path id="path2" d="M199.800 72.773 C 198.700 72.909,200.794 73.016,204.454 73.010 C 208.114 73.005,210.904 72.868,210.654 72.706 C 210.127 72.365,202.732 72.410,199.800 72.773 M187.300 74.276 C 187.685 74.376,188.315 74.376,188.700 74.276 C 189.085 74.175,188.770 74.093,188.000 74.093 C 187.230 74.093,186.915 74.175,187.300 74.276 M179.600 75.600 C 178.796 75.857,178.757 75.923,179.400 75.932 C 179.840 75.938,180.560 75.789,181.000 75.600 C 182.019 75.162,180.968 75.162,179.600 75.600 M172.600 77.415 C 171.016 77.963,171.014 77.966,172.400 77.738 C 173.170 77.612,174.070 77.354,174.400 77.166 C 175.281 76.664,174.430 76.782,172.600 77.415 M167.400 79.014 C 166.400 79.496,166.366 79.551,167.200 79.348 C 168.333 79.071,169.607 78.421,169.000 78.430 C 168.780 78.433,168.060 78.696,167.400 79.014 M163.000 80.614 C 162.000 81.096,161.966 81.151,162.800 80.948 C 163.933 80.671,165.207 80.021,164.600 80.030 C 164.380 80.033,163.660 80.296,163.000 80.614 M152.000 85.200 C 151.230 85.622,150.744 85.974,150.920 85.983 C 151.344 86.005,153.600 84.832,153.600 84.590 C 153.600 84.328,153.577 84.337,152.000 85.200 M203.100 87.882 C 203.595 87.978,204.405 87.978,204.900 87.882 C 205.395 87.787,204.990 87.709,204.000 87.709 C 203.010 87.709,202.605 87.787,203.100 87.882 M197.300 88.287 C 197.905 88.378,198.895 88.378,199.500 88.287 C 200.105 88.195,199.610 88.120,198.400 88.120 C 197.190 88.120,196.695 88.195,197.300 88.287 M194.100 88.676 C 194.485 88.776,195.115 88.776,195.500 88.676 C 195.885 88.575,195.570 88.493,194.800 88.493 C 194.030 88.493,193.715 88.575,194.100 88.676 M184.600 90.019 C 184.042 90.271,184.285 90.307,185.400 90.138 C 186.280 90.004,187.075 89.828,187.167 89.747 C 187.510 89.444,185.368 89.671,184.600 90.019 M178.200 91.600 C 177.696 91.817,177.622 91.944,178.000 91.944 C 178.330 91.944,178.960 91.789,179.400 91.600 C 179.904 91.383,179.978 91.256,179.600 91.256 C 179.270 91.256,178.640 91.411,178.200 91.600 M173.800 93.014 C 172.800 93.496,172.766 93.551,173.600 93.348 C 174.733 93.071,176.007 92.421,175.400 92.430 C 175.180 92.433,174.460 92.696,173.800 93.014 M165.200 96.200 C 164.650 96.514,164.380 96.772,164.600 96.772 C 164.820 96.772,165.450 96.514,166.000 96.200 C 166.550 95.886,166.820 95.628,166.600 95.628 C 166.380 95.628,165.750 95.886,165.200 96.200 M131.800 97.435 L 130.600 98.466 131.900 97.606 C 132.615 97.133,133.200 96.668,133.200 96.573 C 133.200 96.273,133.031 96.378,131.800 97.435 M200.500 101.887 C 201.105 101.978,202.095 101.978,202.700 101.887 C 203.305 101.795,202.810 101.720,201.600 101.720 C 200.390 101.720,199.895 101.795,200.500 101.887 M227.300 101.887 C 227.905 101.978,228.895 101.978,229.500 101.887 C 230.105 101.795,229.610 101.720,228.400 101.720 C 227.190 101.720,226.695 101.795,227.300 101.887 M124.678 103.013 C 124.060 103.556,123.714 104.000,123.908 104.000 C 124.102 104.000,124.683 103.550,125.200 103.000 C 126.395 101.728,126.131 101.734,124.678 103.013 M193.800 102.400 C 192.453 102.641,192.390 102.691,193.400 102.714 C 194.060 102.729,195.410 102.597,196.400 102.420 C 198.015 102.133,198.056 102.101,196.800 102.107 C 196.030 102.111,194.680 102.242,193.800 102.400 M233.800 102.396 C 235.885 102.744,239.456 102.912,239.167 102.648 C 239.075 102.565,237.380 102.399,235.400 102.280 C 232.748 102.120,232.327 102.151,233.800 102.396 M185.200 104.000 C 184.396 104.257,184.357 104.323,185.000 104.332 C 185.440 104.338,186.160 104.189,186.600 104.000 C 187.619 103.562,186.568 103.562,185.200 104.000 M121.381 106.100 L 119.800 107.800 121.500 106.219 C 123.081 104.748,123.384 104.400,123.081 104.400 C 123.016 104.400,122.251 105.165,121.381 106.100 M171.000 108.614 C 169.995 109.098,169.963 109.153,170.800 108.951 C 171.350 108.819,171.971 108.550,172.180 108.355 C 172.698 107.871,172.414 107.933,171.000 108.614 M248.093 110.800 C 248.093 111.570,248.175 111.885,248.276 111.500 C 248.376 111.115,248.376 110.485,248.276 110.100 C 248.175 109.715,248.093 110.030,248.093 110.800 M113.600 113.800 C 112.628 114.790,111.923 115.600,112.033 115.600 C 112.143 115.600,113.028 114.790,114.000 113.800 C 114.972 112.810,115.677 112.000,115.567 112.000 C 115.457 112.000,114.572 112.810,113.600 113.800 M247.300 113.700 C 246.870 114.875,246.880 114.926,247.412 114.224 C 247.921 113.552,248.221 112.400,247.888 112.400 C 247.826 112.400,247.561 112.985,247.300 113.700 M132.894 115.612 C 132.175 116.265,131.737 116.800,131.919 116.800 C 132.101 116.800,132.768 116.260,133.400 115.600 C 134.870 114.065,134.586 114.072,132.894 115.612 M110.434 117.353 L 109.469 118.600 110.613 117.512 C 111.243 116.914,111.677 116.353,111.579 116.265 C 111.480 116.177,110.965 116.667,110.434 117.353 M127.192 121.100 L 123.400 125.000 127.300 121.208 C 130.922 117.686,131.382 117.200,131.092 117.200 C 131.033 117.200,129.278 118.955,127.192 121.100 M205.905 117.483 C 206.402 117.579,207.122 117.575,207.505 117.475 C 207.887 117.375,207.480 117.296,206.600 117.301 C 205.720 117.305,205.407 117.387,205.905 117.483 M226.100 117.487 C 226.705 117.578,227.695 117.578,228.300 117.487 C 228.905 117.395,228.410 117.320,227.200 117.320 C 225.990 117.320,225.495 117.395,226.100 117.487 M242.800 117.825 C 241.834 118.191,241.655 118.362,242.224 118.377 C 242.676 118.390,243.396 118.136,243.824 117.813 C 244.735 117.123,244.653 117.124,242.800 117.825 M199.000 118.000 C 197.653 118.241,197.590 118.291,198.600 118.314 C 199.260 118.329,200.610 118.197,201.600 118.020 C 203.215 117.733,203.256 117.701,202.000 117.707 C 201.230 117.711,199.880 117.842,199.000 118.000 M232.105 117.887 C 232.714 117.979,233.614 117.977,234.105 117.882 C 234.597 117.787,234.100 117.711,233.000 117.714 C 231.900 117.717,231.497 117.795,232.105 117.887 M236.100 118.287 C 236.705 118.378,237.695 118.378,238.300 118.287 C 238.905 118.195,238.410 118.120,237.200 118.120 C 235.990 118.120,235.495 118.195,236.100 118.287 M190.400 119.600 C 189.608 119.854,189.567 119.920,190.200 119.920 C 190.640 119.920,191.450 119.776,192.000 119.600 C 192.792 119.346,192.833 119.280,192.200 119.280 C 191.760 119.280,190.950 119.424,190.400 119.600 M184.600 121.200 C 184.096 121.417,184.022 121.544,184.400 121.544 C 184.730 121.544,185.360 121.389,185.800 121.200 C 186.304 120.983,186.378 120.856,186.000 120.856 C 185.670 120.856,185.040 121.011,184.600 121.200 M73.076 123.300 C 71.830 124.533,71.825 124.549,72.981 123.603 C 73.652 123.055,74.371 122.470,74.580 122.303 C 74.789 122.136,74.831 122.000,74.674 122.000 C 74.517 122.000,73.798 122.585,73.076 123.300 M179.400 123.014 C 178.400 123.496,178.366 123.551,179.200 123.348 C 180.333 123.071,181.607 122.421,181.000 122.430 C 180.780 122.433,180.060 122.696,179.400 123.014 M145.000 125.068 C 144.120 125.857,143.760 126.316,144.200 126.088 C 144.941 125.704,147.151 123.579,146.770 123.617 C 146.676 123.626,145.880 124.279,145.000 125.068 M121.775 126.900 L 120.600 128.200 121.900 127.025 C 123.112 125.930,123.384 125.600,123.075 125.600 C 123.006 125.600,122.421 126.185,121.775 126.900 M141.381 128.500 L 139.800 130.200 141.500 128.619 C 143.081 127.148,143.384 126.800,143.081 126.800 C 143.016 126.800,142.251 127.565,141.381 128.500 M85.701 129.400 C 85.705 130.280,85.787 130.593,85.883 130.095 C 85.979 129.598,85.975 128.878,85.875 128.495 C 85.775 128.113,85.696 128.520,85.701 129.400 M118.323 131.100 C 117.618 131.921,117.090 132.800,117.301 132.800 C 117.383 132.800,117.849 132.260,118.337 131.600 C 119.301 130.296,119.292 129.972,118.323 131.100 M135.210 134.590 C 134.020 135.795,133.126 136.836,133.223 136.905 C 133.321 136.973,134.374 135.988,135.563 134.715 C 138.306 131.781,138.067 131.697,135.210 134.590 M66.278 134.605 C 65.912 135.372,65.695 136.000,65.796 136.000 C 66.070 136.000,67.284 133.551,67.101 133.368 C 67.014 133.281,66.644 133.838,66.278 134.605 M150.941 140.300 C 148.730 142.445,148.289 142.952,149.961 141.426 C 154.390 137.384,155.410 136.400,155.173 136.400 C 155.057 136.400,153.152 138.155,150.941 140.300 M110.200 143.600 C 109.859 144.260,109.669 144.800,109.779 144.800 C 109.889 144.800,110.259 144.260,110.600 143.600 C 110.941 142.940,111.131 142.400,111.021 142.400 C 110.911 142.400,110.541 142.940,110.200 143.600 M78.865 144.217 C 78.195 145.688,78.323 146.002,79.047 144.665 C 79.386 144.040,79.588 143.454,79.496 143.363 C 79.405 143.271,79.121 143.656,78.865 144.217 M61.646 145.639 C 61.401 146.343,61.213 147.118,61.228 147.360 C 61.244 147.602,61.514 147.096,61.830 146.235 C 62.145 145.374,62.333 144.600,62.248 144.515 C 62.162 144.429,61.892 144.935,61.646 145.639 M145.345 146.100 C 143.840 147.716,141.422 150.799,141.032 151.600 C 140.872 151.930,141.158 151.660,141.669 151.000 C 142.179 150.340,143.547 148.675,144.709 147.300 C 146.983 144.608,147.309 143.993,145.345 146.100 M202.500 145.476 C 202.885 145.576,203.515 145.576,203.900 145.476 C 204.285 145.375,203.970 145.293,203.200 145.293 C 202.430 145.293,202.115 145.375,202.500 145.476 M245.700 145.476 C 246.085 145.576,246.715 145.576,247.100 145.476 C 247.485 145.375,247.170 145.293,246.400 145.293 C 245.630 145.293,245.315 145.375,245.700 145.476 M126.153 146.100 C 124.776 148.436,124.686 148.635,125.387 147.800 C 126.200 146.832,126.900 145.600,126.638 145.600 C 126.533 145.600,126.315 145.825,126.153 146.100 M206.600 145.981 C 207.368 146.329,209.510 146.556,209.167 146.253 C 209.075 146.172,208.280 145.996,207.400 145.862 C 206.285 145.693,206.042 145.729,206.600 145.981 M260.600 145.950 C 261.040 146.135,262.120 146.399,263.000 146.537 C 264.015 146.695,264.308 146.664,263.800 146.450 C 263.360 146.265,262.280 146.001,261.400 145.863 C 260.385 145.705,260.092 145.736,260.600 145.950 M239.400 146.419 C 238.842 146.671,239.085 146.707,240.200 146.538 C 241.080 146.404,241.875 146.228,241.967 146.147 C 242.310 145.844,240.168 146.071,239.400 146.419 M209.902 147.400 C 210.007 147.950,210.162 148.400,210.247 148.400 C 210.331 148.400,210.400 147.950,210.400 147.400 C 210.400 146.850,210.245 146.400,210.055 146.400 C 209.866 146.400,209.797 146.850,209.902 147.400 M234.600 147.786 C 233.055 148.493,233.774 148.503,235.600 147.800 C 236.370 147.503,236.730 147.255,236.400 147.248 C 236.070 147.242,235.260 147.483,234.600 147.786 M267.200 147.533 C 267.530 147.736,268.250 148.024,268.800 148.171 C 269.495 148.357,269.617 148.325,269.200 148.067 C 268.870 147.864,268.150 147.576,267.600 147.429 C 266.905 147.243,266.783 147.275,267.200 147.533 M272.000 149.400 C 272.550 149.714,273.180 149.972,273.400 149.972 C 273.620 149.972,273.350 149.714,272.800 149.400 C 272.250 149.086,271.620 148.828,271.400 148.828 C 271.180 148.828,271.450 149.086,272.000 149.400 M227.900 150.629 C 226.405 151.440,226.496 151.778,228.000 151.000 C 228.660 150.659,229.200 150.294,229.200 150.190 C 229.200 149.932,229.157 149.947,227.900 150.629 M88.044 155.644 C 87.798 156.351,87.666 157.000,87.752 157.085 C 87.838 157.171,88.109 156.662,88.356 155.956 C 88.602 155.249,88.734 154.600,88.648 154.515 C 88.562 154.429,88.291 154.938,88.044 155.644 M58.433 156.633 C 58.175 157.659,58.039 158.572,58.131 158.664 C 58.222 158.756,58.509 157.992,58.767 156.967 C 59.025 155.941,59.161 155.028,59.069 154.936 C 58.978 154.844,58.691 155.608,58.433 156.633 M282.000 154.906 C 282.000 154.994,282.765 155.674,283.700 156.417 C 284.635 157.160,285.146 157.452,284.836 157.065 C 284.251 156.337,282.000 154.623,282.000 154.906 M103.644 157.644 C 103.398 158.351,103.266 159.000,103.352 159.085 C 103.438 159.171,103.709 158.662,103.956 157.956 C 104.202 157.249,104.334 156.600,104.248 156.515 C 104.162 156.429,103.891 156.938,103.644 157.644 M163.381 158.100 L 161.800 159.800 163.500 158.219 C 165.081 156.748,165.384 156.400,165.081 156.400 C 165.016 156.400,164.251 157.165,163.381 158.100 M201.600 158.634 C 200.290 159.170,200.277 159.192,201.400 158.975 C 202.060 158.848,202.771 158.576,202.980 158.372 C 203.459 157.903,203.321 157.929,201.600 158.634 M288.400 160.600 C 289.817 162.030,291.067 163.200,291.177 163.200 C 291.287 163.200,290.217 162.030,288.800 160.600 C 287.383 159.170,286.133 158.000,286.023 158.000 C 285.913 158.000,286.983 159.170,288.400 160.600 M215.178 159.900 L 213.800 161.400 215.300 160.022 C 216.696 158.738,216.984 158.400,216.678 158.400 C 216.612 158.400,215.937 159.075,215.178 159.900 M195.900 159.489 C 196.615 159.578,197.785 159.578,198.500 159.489 C 199.215 159.401,198.630 159.328,197.200 159.328 C 195.770 159.328,195.185 159.401,195.900 159.489 M250.311 159.493 C 251.251 159.578,252.691 159.577,253.511 159.491 C 254.330 159.405,253.560 159.336,251.800 159.337 C 250.040 159.339,249.370 159.409,250.311 159.493 M135.000 161.200 C 134.659 161.860,134.469 162.400,134.579 162.400 C 134.689 162.400,135.059 161.860,135.400 161.200 C 135.741 160.540,135.931 160.000,135.821 160.000 C 135.711 160.000,135.341 160.540,135.000 161.200 M259.600 160.400 C 260.968 160.838,262.019 160.838,261.000 160.400 C 260.560 160.211,259.840 160.062,259.400 160.068 C 258.757 160.077,258.796 160.143,259.600 160.400 M159.178 162.300 L 157.800 163.800 159.300 162.422 C 160.125 161.663,160.800 160.988,160.800 160.922 C 160.800 160.616,160.462 160.904,159.178 162.300 M265.158 162.037 C 266.125 162.466,266.988 162.745,267.075 162.658 C 267.248 162.486,264.165 161.182,263.692 161.228 C 263.531 161.244,264.191 161.608,265.158 162.037 M133.665 163.817 C 132.995 165.288,133.123 165.602,133.847 164.265 C 134.186 163.640,134.388 163.054,134.296 162.963 C 134.205 162.871,133.921 163.256,133.665 163.817 M234.300 163.429 C 232.805 164.240,232.896 164.578,234.400 163.800 C 235.060 163.459,235.600 163.094,235.600 162.990 C 235.600 162.732,235.557 162.747,234.300 163.429 M292.383 165.100 C 293.126 166.035,293.806 166.800,293.894 166.800 C 294.177 166.800,292.463 164.549,291.735 163.964 C 291.348 163.654,291.640 164.165,292.383 165.100 M72.600 165.200 C 72.448 165.891,72.407 166.541,72.509 166.642 C 72.611 166.744,72.809 166.253,72.950 165.550 C 73.283 163.883,72.960 163.560,72.600 165.200 M271.200 164.924 C 271.200 165.017,271.965 165.598,272.900 166.215 C 273.835 166.832,274.389 167.080,274.131 166.768 C 273.634 166.167,271.200 164.636,271.200 164.924 M329.233 164.945 C 329.325 165.025,330.201 165.192,331.179 165.318 C 332.330 165.465,332.754 165.416,332.379 165.179 C 331.845 164.840,328.858 164.619,329.233 164.945 M100.629 166.629 C 100.481 167.215,100.438 167.772,100.532 167.866 C 100.627 167.960,100.824 167.558,100.971 166.971 C 101.119 166.385,101.162 165.828,101.068 165.734 C 100.973 165.640,100.776 166.042,100.629 166.629 M229.400 166.635 L 228.200 167.666 229.500 166.806 C 230.215 166.333,230.800 165.868,230.800 165.773 C 230.800 165.473,230.631 165.578,229.400 166.635 M208.902 167.300 C 208.336 168.015,207.540 169.600,207.746 169.600 C 207.842 169.600,208.293 168.970,208.747 168.200 C 209.573 166.801,209.649 166.357,208.902 167.300 M323.755 168.612 C 323.390 169.169,323.164 169.698,323.253 169.787 C 323.342 169.876,323.718 169.420,324.089 168.774 C 324.914 167.336,324.669 167.217,323.755 168.612 M226.175 169.300 L 225.000 170.600 226.300 169.425 C 227.015 168.779,227.600 168.194,227.600 168.125 C 227.600 167.816,227.270 168.088,226.175 169.300 M170.800 170.600 C 169.828 171.590,169.123 172.400,169.233 172.400 C 169.343 172.400,170.228 171.590,171.200 170.600 C 172.172 169.610,172.877 168.800,172.767 168.800 C 172.657 168.800,171.772 169.610,170.800 170.600 M130.446 171.639 C 130.201 172.343,130.013 173.118,130.028 173.360 C 130.044 173.602,130.314 173.096,130.630 172.235 C 130.945 171.374,131.133 170.600,131.048 170.515 C 130.962 170.429,130.692 170.935,130.446 171.639 M322.901 171.800 C 322.905 172.680,322.987 172.993,323.083 172.495 C 323.179 171.998,323.175 171.278,323.075 170.895 C 322.975 170.513,322.896 170.920,322.901 171.800 M223.537 171.900 C 222.434 173.099,219.975 176.449,220.675 175.800 C 221.285 175.234,224.836 170.800,224.679 170.800 C 224.608 170.800,224.094 171.295,223.537 171.900 M278.400 170.925 C 278.400 170.994,278.985 171.579,279.700 172.225 L 281.000 173.400 279.825 172.100 C 278.730 170.888,278.400 170.616,278.400 170.925 M99.050 172.450 C 98.717 174.117,99.040 174.440,99.400 172.800 C 99.552 172.109,99.593 171.459,99.491 171.358 C 99.389 171.256,99.191 171.747,99.050 172.450 M55.309 174.400 C 55.309 175.390,55.387 175.795,55.482 175.300 C 55.578 174.805,55.578 173.995,55.482 173.500 C 55.387 173.005,55.309 173.410,55.309 174.400 M70.893 175.600 C 70.893 176.370,70.975 176.685,71.076 176.300 C 71.176 175.915,71.176 175.285,71.076 174.900 C 70.975 174.515,70.893 174.830,70.893 175.600 M113.029 175.829 C 112.881 176.415,112.838 176.972,112.932 177.066 C 113.027 177.160,113.224 176.758,113.371 176.171 C 113.519 175.585,113.562 175.028,113.468 174.934 C 113.373 174.840,113.176 175.242,113.029 175.829 M128.800 177.200 C 128.551 178.124,128.426 178.959,128.521 179.055 C 128.617 179.150,128.890 178.463,129.127 177.527 C 129.365 176.591,129.490 175.757,129.406 175.673 C 129.322 175.588,129.049 176.276,128.800 177.200 M81.818 179.418 C 81.665 180.439,81.622 181.355,81.722 181.455 C 81.822 181.555,82.029 180.802,82.182 179.782 C 82.335 178.761,82.378 177.845,82.278 177.745 C 82.178 177.645,81.971 178.398,81.818 179.418 M341.029 178.800 C 341.176 179.350,341.464 180.070,341.667 180.400 C 341.925 180.817,341.957 180.695,341.771 180.000 C 341.624 179.450,341.336 178.730,341.133 178.400 C 340.875 177.983,340.843 178.105,341.029 178.800 M255.500 179.482 C 255.995 179.578,256.805 179.578,257.300 179.482 C 257.795 179.387,257.390 179.309,256.400 179.309 C 255.410 179.309,255.005 179.387,255.500 179.482 M163.179 181.855 C 162.958 182.436,162.852 182.985,162.943 183.076 C 163.033 183.167,163.299 182.692,163.533 182.020 C 164.053 180.528,163.739 180.382,163.179 181.855 M54.501 182.600 C 54.505 183.480,54.587 183.793,54.683 183.295 C 54.779 182.798,54.775 182.078,54.675 181.695 C 54.575 181.313,54.496 181.720,54.501 182.600 M247.767 182.629 L 246.200 184.058 247.900 182.762 C 249.453 181.578,249.832 181.200,249.467 181.200 C 249.393 181.200,248.628 181.843,247.767 182.629 M70.093 182.800 C 70.093 183.570,70.175 183.885,70.276 183.500 C 70.376 183.115,70.376 182.485,70.276 182.100 C 70.175 181.715,70.093 182.030,70.093 182.800 M111.433 184.033 C 111.283 185.166,111.241 186.174,111.339 186.272 C 111.437 186.371,111.645 185.528,111.800 184.400 C 111.955 183.272,111.998 182.264,111.894 182.161 C 111.791 182.058,111.584 182.900,111.433 184.033 M200.600 183.200 C 200.259 183.860,200.069 184.400,200.179 184.400 C 200.289 184.400,200.659 183.860,201.000 183.200 C 201.341 182.540,201.531 182.000,201.421 182.000 C 201.311 182.000,200.941 182.540,200.600 183.200 M342.456 182.800 C 342.456 183.130,342.611 183.760,342.800 184.200 C 343.017 184.704,343.144 184.778,343.144 184.400 C 343.144 184.070,342.989 183.440,342.800 183.000 C 342.583 182.496,342.456 182.422,342.456 182.800 M147.429 183.829 C 147.281 184.415,147.238 184.972,147.332 185.066 C 147.427 185.160,147.624 184.758,147.771 184.171 C 147.919 183.585,147.962 183.028,147.868 182.934 C 147.773 182.840,147.576 183.242,147.429 183.829 M199.078 186.205 C 198.712 186.972,198.495 187.600,198.596 187.600 C 198.870 187.600,200.084 185.151,199.901 184.968 C 199.814 184.881,199.444 185.438,199.078 186.205 M302.068 185.400 C 302.062 185.840,302.211 186.560,302.400 187.000 C 302.838 188.019,302.838 186.968,302.400 185.600 C 302.143 184.796,302.077 184.757,302.068 185.400 M161.429 186.629 C 161.281 187.215,161.238 187.772,161.332 187.866 C 161.427 187.960,161.624 187.558,161.771 186.971 C 161.919 186.385,161.962 185.828,161.868 185.734 C 161.773 185.640,161.576 186.042,161.429 186.629 M69.720 188.000 C 69.720 189.210,69.795 189.705,69.887 189.100 C 69.978 188.495,69.978 187.505,69.887 186.900 C 69.795 186.295,69.720 186.790,69.720 188.000 M54.131 189.000 C 54.133 190.540,54.205 191.121,54.292 190.291 C 54.379 189.461,54.377 188.201,54.289 187.491 C 54.200 186.781,54.129 187.460,54.131 189.000 M244.200 187.600 C 243.859 188.260,243.669 188.800,243.779 188.800 C 243.889 188.800,244.259 188.260,244.600 187.600 C 244.941 186.940,245.131 186.400,245.021 186.400 C 244.911 186.400,244.541 186.940,244.200 187.600 M110.893 189.200 C 110.893 189.970,110.975 190.285,111.076 189.900 C 111.176 189.515,111.176 188.885,111.076 188.500 C 110.975 188.115,110.893 188.430,110.893 189.200 M96.124 191.000 C 96.126 192.320,96.201 192.812,96.290 192.093 C 96.379 191.374,96.377 190.294,96.286 189.693 C 96.195 189.092,96.122 189.680,96.124 191.000 M69.372 199.600 C 69.372 204.770,69.429 206.885,69.499 204.300 C 69.568 201.715,69.568 197.485,69.499 194.900 C 69.429 192.315,69.372 194.430,69.372 199.600 M80.571 199.200 C 80.571 204.150,80.628 206.175,80.699 203.700 C 80.769 201.225,80.769 197.175,80.699 194.700 C 80.628 192.225,80.571 194.250,80.571 199.200 M146.074 192.244 C 146.033 193.368,145.915 195.168,145.811 196.244 L 145.622 198.200 146.030 196.242 C 146.254 195.166,146.373 193.366,146.293 192.242 L 146.148 190.200 146.074 192.244 M330.068 191.200 C 330.088 192.239,330.718 193.946,330.732 193.000 C 330.738 192.560,330.589 191.840,330.400 191.400 C 330.189 190.910,330.061 190.832,330.068 191.200 M53.775 202.400 C 53.775 208.230,53.831 210.615,53.899 207.700 C 53.967 204.785,53.967 200.015,53.899 197.100 C 53.831 194.185,53.775 196.570,53.775 202.400 M257.000 194.000 C 256.659 194.660,256.469 195.200,256.579 195.200 C 256.689 195.200,257.059 194.660,257.400 194.000 C 257.741 193.340,257.931 192.800,257.821 192.800 C 257.711 192.800,257.341 193.340,257.000 194.000 M303.348 196.800 C 303.348 199.110,303.414 200.055,303.495 198.900 C 303.576 197.745,303.576 195.855,303.495 194.700 C 303.414 193.545,303.348 194.490,303.348 196.800 M160.144 196.800 C 160.144 198.890,160.212 199.745,160.294 198.700 C 160.376 197.655,160.376 195.945,160.294 194.900 C 160.212 193.855,160.144 194.710,160.144 196.800 M95.650 200.433 C 95.677 204.265,95.821 208.660,95.970 210.200 C 96.119 211.740,96.163 208.680,96.067 203.400 C 95.972 198.120,95.827 193.725,95.747 193.633 C 95.666 193.542,95.622 196.602,95.650 200.433 M194.200 195.600 C 193.859 196.260,193.669 196.800,193.779 196.800 C 193.889 196.800,194.259 196.260,194.600 195.600 C 194.941 194.940,195.131 194.400,195.021 194.400 C 194.911 194.400,194.541 194.940,194.200 195.600 M110.553 199.800 C 110.553 202.440,110.618 203.468,110.697 202.084 C 110.775 200.701,110.774 198.541,110.695 197.284 C 110.616 196.028,110.552 197.160,110.553 199.800 M125.748 200.000 C 125.748 202.310,125.814 203.255,125.895 202.100 C 125.976 200.945,125.976 199.055,125.895 197.900 C 125.814 196.745,125.748 197.690,125.748 200.000 M345.709 199.200 C 345.709 200.190,345.787 200.595,345.882 200.100 C 345.978 199.605,345.978 198.795,345.882 198.300 C 345.787 197.805,345.709 198.210,345.709 199.200 M146.131 201.000 C 146.133 202.540,146.205 203.121,146.292 202.291 C 146.379 201.461,146.377 200.201,146.289 199.491 C 146.200 198.781,146.129 199.460,146.131 201.000 M331.800 208.200 C 331.800 213.040,331.915 215.920,332.057 214.600 C 332.390 211.482,332.392 204.401,332.060 201.600 C 331.917 200.390,331.800 203.360,331.800 208.200 M236.600 202.400 C 236.259 203.060,236.069 203.600,236.179 203.600 C 236.289 203.600,236.659 203.060,237.000 202.400 C 237.341 201.740,237.531 201.200,237.421 201.200 C 237.311 201.200,236.941 201.740,236.600 202.400 M346.086 207.800 C 346.035 211.540,345.911 215.590,345.810 216.800 L 345.626 219.000 346.022 216.814 C 346.240 215.612,346.365 211.562,346.299 207.814 L 346.180 201.000 346.086 207.800 M288.046 205.267 C 288.021 205.634,287.896 206.264,287.770 206.667 C 287.552 207.362,287.563 207.363,287.997 206.687 C 288.248 206.296,288.373 205.666,288.273 205.287 C 288.111 204.668,288.088 204.666,288.046 205.267 M250.600 206.400 C 250.259 207.060,250.069 207.600,250.179 207.600 C 250.289 207.600,250.659 207.060,251.000 206.400 C 251.341 205.740,251.531 205.200,251.421 205.200 C 251.311 205.200,250.941 205.740,250.600 206.400 M302.222 207.422 C 302.072 208.225,302.028 208.962,302.126 209.060 C 302.224 209.157,302.427 208.581,302.578 207.778 C 302.728 206.975,302.772 206.238,302.674 206.140 C 302.576 206.043,302.373 206.619,302.222 207.422 M147.256 209.200 C 147.256 209.530,147.411 210.160,147.600 210.600 C 147.817 211.104,147.944 211.178,147.944 210.800 C 147.944 210.470,147.789 209.840,147.600 209.400 C 147.383 208.896,147.256 208.822,147.256 209.200 M69.724 211.400 C 69.726 212.720,69.801 213.212,69.890 212.493 C 69.979 211.774,69.977 210.694,69.886 210.093 C 69.795 209.492,69.722 210.080,69.724 211.400 M286.444 210.444 C 286.198 211.151,286.066 211.800,286.152 211.885 C 286.238 211.971,286.509 211.462,286.756 210.756 C 287.002 210.049,287.134 209.400,287.048 209.315 C 286.962 209.229,286.691 209.738,286.444 210.444 M110.893 210.800 C 110.893 211.570,110.975 211.885,111.076 211.500 C 111.176 211.115,111.176 210.485,111.076 210.100 C 110.975 209.715,110.893 210.030,110.893 210.800 M201.200 211.268 C 200.152 212.220,199.901 212.565,200.600 212.095 C 201.704 211.351,203.538 209.577,203.162 209.617 C 203.073 209.626,202.190 210.370,201.200 211.268 M162.828 211.000 C 162.828 211.220,163.086 211.850,163.400 212.400 C 163.714 212.950,163.972 213.220,163.972 213.000 C 163.972 212.780,163.714 212.150,163.400 211.600 C 163.086 211.050,162.828 210.780,162.828 211.000 M187.200 213.031 C 187.200 213.301,189.278 214.056,189.476 213.857 C 189.567 213.767,189.092 213.501,188.420 213.267 C 187.749 213.033,187.200 212.927,187.200 213.031 M54.114 215.000 C 54.117 216.100,54.195 216.503,54.287 215.895 C 54.379 215.286,54.377 214.386,54.282 213.895 C 54.187 213.403,54.111 213.900,54.114 215.000 M111.472 215.800 C 111.599 216.900,111.769 217.875,111.851 217.967 C 112.132 218.282,111.920 215.799,111.580 214.800 C 111.351 214.126,111.316 214.451,111.472 215.800 M127.228 215.633 C 127.244 216.165,127.419 216.960,127.619 217.400 C 127.871 217.958,127.907 217.715,127.738 216.600 C 127.455 214.743,127.187 214.236,127.228 215.633 M70.093 216.800 C 70.093 217.570,70.175 217.885,70.276 217.500 C 70.376 217.115,70.376 216.485,70.276 216.100 C 70.175 215.715,70.093 216.030,70.093 216.800 M81.695 217.600 C 81.695 218.150,81.832 219.140,82.000 219.800 C 82.272 220.870,82.305 220.892,82.305 220.000 C 82.305 219.450,82.168 218.460,82.000 217.800 C 81.728 216.730,81.695 216.708,81.695 217.600 M244.181 218.837 C 243.829 219.518,243.612 220.145,243.699 220.232 C 243.786 220.319,244.156 219.762,244.522 218.995 C 245.344 217.270,245.059 217.138,244.181 218.837 M281.362 219.500 C 280.739 220.325,279.413 221.915,278.415 223.034 C 276.728 224.926,276.756 224.910,278.819 222.810 C 280.926 220.665,283.062 218.000,282.675 218.000 C 282.576 218.000,281.985 218.675,281.362 219.500 M128.644 222.000 C 128.780 222.770,129.054 223.670,129.251 224.000 C 129.677 224.710,129.268 222.637,128.739 221.400 C 128.508 220.860,128.477 221.056,128.644 222.000 M169.829 222.038 C 170.473 222.829,171.081 223.408,171.179 223.325 C 171.278 223.242,170.751 222.595,170.009 221.887 L 168.658 220.600 169.829 222.038 M223.800 223.513 C 222.260 224.998,220.370 226.716,219.600 227.332 C 218.398 228.293,218.458 228.276,220.026 227.211 C 221.651 226.107,227.266 220.790,226.788 220.807 C 226.685 220.810,225.340 222.028,223.800 223.513 M242.600 222.000 C 242.259 222.660,242.069 223.200,242.179 223.200 C 242.289 223.200,242.659 222.660,243.000 222.000 C 243.341 221.340,243.531 220.800,243.421 220.800 C 243.311 220.800,242.941 221.340,242.600 222.000 M296.553 222.500 C 295.176 224.836,295.086 225.035,295.787 224.200 C 296.600 223.232,297.300 222.000,297.038 222.000 C 296.933 222.000,296.715 222.225,296.553 222.500 M112.856 223.200 C 112.856 223.530,113.011 224.160,113.200 224.600 C 113.417 225.104,113.544 225.178,113.544 224.800 C 113.544 224.470,113.389 223.840,113.200 223.400 C 112.983 222.896,112.856 222.822,112.856 223.200 M70.901 224.600 C 70.905 225.480,70.987 225.793,71.083 225.295 C 71.179 224.798,71.175 224.078,71.075 223.695 C 70.975 223.313,70.896 223.720,70.901 224.600 M330.449 223.800 C 330.416 224.240,330.296 225.050,330.183 225.600 L 329.977 226.600 330.406 225.619 C 330.642 225.079,330.761 224.269,330.672 223.819 C 330.513 223.021,330.507 223.021,330.449 223.800 M172.800 225.000 C 173.546 225.770,174.247 226.400,174.357 226.400 C 174.467 226.400,173.946 225.770,173.200 225.000 C 172.454 224.230,171.753 223.600,171.643 223.600 C 171.533 223.600,172.054 224.230,172.800 225.000 M55.293 226.400 C 55.293 227.170,55.375 227.485,55.476 227.100 C 55.576 226.715,55.576 226.085,55.476 225.700 C 55.375 225.315,55.293 225.630,55.293 226.400 M83.280 226.200 C 83.280 226.640,83.424 227.450,83.600 228.000 C 83.854 228.792,83.920 228.833,83.920 228.200 C 83.920 227.760,83.776 226.950,83.600 226.400 C 83.346 225.608,83.280 225.567,83.280 226.200 M274.000 226.849 C 272.606 228.071,272.605 228.072,273.888 227.219 C 274.596 226.748,275.282 226.191,275.412 225.981 C 275.797 225.357,275.477 225.554,274.000 226.849 M344.449 226.200 C 344.416 226.640,344.296 227.450,344.183 228.000 L 343.977 229.000 344.406 228.019 C 344.642 227.479,344.761 226.669,344.672 226.219 C 344.513 225.421,344.507 225.421,344.449 226.200 M130.048 226.800 C 130.042 227.130,130.283 227.940,130.586 228.600 C 131.293 230.145,131.303 229.426,130.600 227.600 C 130.303 226.830,130.055 226.470,130.048 226.800 M174.800 226.546 C 174.800 226.656,175.340 227.130,176.000 227.600 C 176.660 228.070,177.200 228.364,177.200 228.254 C 177.200 228.144,176.660 227.670,176.000 227.200 C 175.340 226.730,174.800 226.436,174.800 226.546 M98.856 227.600 C 98.856 227.930,99.011 228.560,99.200 229.000 C 99.417 229.504,99.544 229.578,99.544 229.200 C 99.544 228.870,99.389 228.240,99.200 227.800 C 98.983 227.296,98.856 227.222,98.856 227.600 M235.228 232.506 C 233.374 234.538,232.714 235.390,233.761 234.400 C 235.558 232.702,239.035 228.793,238.737 228.806 C 238.662 228.809,237.083 230.474,235.228 232.506 M160.800 233.400 C 162.217 234.830,163.467 236.000,163.577 236.000 C 163.687 236.000,162.617 234.830,161.200 233.400 C 159.783 231.970,158.533 230.800,158.423 230.800 C 158.313 230.800,159.383 231.970,160.800 233.400 M131.628 231.400 C 131.628 231.620,131.886 232.250,132.200 232.800 C 132.514 233.350,132.772 233.620,132.772 233.400 C 132.772 233.180,132.514 232.550,132.200 232.000 C 131.886 231.450,131.628 231.180,131.628 231.400 M184.000 231.933 C 184.330 232.136,185.050 232.424,185.600 232.571 C 186.295 232.757,186.417 232.725,186.000 232.467 C 185.670 232.264,184.950 231.976,184.400 231.829 C 183.705 231.643,183.583 231.675,184.000 231.933 M210.200 232.214 C 209.195 232.698,209.163 232.753,210.000 232.551 C 210.550 232.419,211.171 232.150,211.380 231.955 C 211.898 231.471,211.614 231.533,210.200 232.214 M342.800 233.600 C 342.551 234.524,342.426 235.359,342.521 235.455 C 342.617 235.550,342.890 234.863,343.127 233.927 C 343.365 232.991,343.490 232.157,343.406 232.073 C 343.322 231.988,343.049 232.676,342.800 233.600 M84.856 232.800 C 84.856 233.130,85.011 233.760,85.200 234.200 C 85.417 234.704,85.544 234.778,85.544 234.400 C 85.544 234.070,85.389 233.440,85.200 233.000 C 84.983 232.496,84.856 232.422,84.856 232.800 M100.456 233.200 C 100.456 233.530,100.611 234.160,100.800 234.600 C 101.017 235.104,101.144 235.178,101.144 234.800 C 101.144 234.470,100.989 233.840,100.800 233.400 C 100.583 232.896,100.456 232.822,100.456 233.200 M204.600 233.600 C 203.511 233.877,203.493 233.907,204.400 233.925 C 204.950 233.935,205.760 233.789,206.200 233.600 C 207.186 233.176,206.266 233.176,204.600 233.600 M258.600 233.600 C 257.493 233.882,257.477 233.909,258.400 233.947 C 258.950 233.969,259.670 233.813,260.000 233.600 C 260.681 233.160,260.329 233.160,258.600 233.600 M72.468 234.200 C 72.462 234.640,72.611 235.360,72.800 235.800 C 73.238 236.819,73.238 235.768,72.800 234.400 C 72.543 233.596,72.477 233.557,72.468 234.200 M192.900 234.276 C 193.285 234.376,193.915 234.376,194.300 234.276 C 194.685 234.175,194.370 234.093,193.600 234.093 C 192.830 234.093,192.515 234.175,192.900 234.276 M201.300 234.276 C 201.685 234.376,202.315 234.376,202.700 234.276 C 203.085 234.175,202.770 234.093,202.000 234.093 C 201.230 234.093,200.915 234.175,201.300 234.276 M255.105 234.283 C 255.602 234.379,256.322 234.375,256.705 234.275 C 257.087 234.175,256.680 234.096,255.800 234.101 C 254.920 234.105,254.607 234.187,255.105 234.283 M285.192 236.111 C 284.417 236.820,283.157 237.907,282.392 238.526 C 281.225 239.469,281.303 239.446,282.868 238.381 C 284.530 237.250,287.231 234.783,286.775 234.811 C 286.679 234.817,285.966 235.402,285.192 236.111 M56.828 236.033 C 56.844 236.565,57.019 237.360,57.219 237.800 C 57.471 238.358,57.507 238.115,57.338 237.000 C 57.055 235.143,56.787 234.636,56.828 236.033 M101.829 237.600 C 101.976 238.150,102.264 238.870,102.467 239.200 C 102.725 239.617,102.757 239.495,102.571 238.800 C 102.424 238.250,102.136 237.530,101.933 237.200 C 101.675 236.783,101.643 236.905,101.829 237.600 M73.844 240.400 C 73.980 241.170,74.254 242.070,74.451 242.400 C 74.877 243.110,74.468 241.037,73.939 239.800 C 73.708 239.260,73.677 239.456,73.844 240.400 M325.638 242.000 C 325.624 242.990,325.770 244.049,325.963 244.354 C 326.179 244.695,326.241 244.158,326.124 242.954 C 325.860 240.245,325.668 239.867,325.638 242.000 M75.429 246.000 C 75.576 246.550,75.864 247.270,76.067 247.600 C 76.325 248.017,76.357 247.895,76.171 247.200 C 76.024 246.650,75.736 245.930,75.533 245.600 C 75.275 245.183,75.243 245.305,75.429 246.000 M327.200 246.400 C 327.670 247.060,328.144 247.600,328.254 247.600 C 328.364 247.600,328.070 247.060,327.600 246.400 C 327.130 245.740,326.656 245.200,326.546 245.200 C 326.436 245.200,326.730 245.740,327.200 246.400 M337.438 246.895 C 335.962 248.435,336.128 248.629,337.737 247.244 C 338.373 246.696,339.440 245.138,339.114 245.233 C 339.051 245.252,338.297 245.999,337.438 246.895 M89.418 246.900 C 89.568 247.395,89.855 247.976,90.056 248.191 C 90.257 248.406,90.219 248.001,89.972 247.291 C 89.465 245.838,88.997 245.508,89.418 246.900 M122.600 248.000 C 122.941 248.660,123.311 249.200,123.421 249.200 C 123.531 249.200,123.341 248.660,123.000 248.000 C 122.659 247.340,122.289 246.800,122.179 246.800 C 122.069 246.800,122.259 247.340,122.600 248.000 M188.200 248.000 C 188.860 248.168,189.850 248.305,190.400 248.305 C 191.292 248.305,191.270 248.272,190.200 248.000 C 189.540 247.832,188.550 247.695,188.000 247.695 C 187.108 247.695,187.130 247.728,188.200 248.000 M205.200 248.020 C 204.526 248.249,204.851 248.284,206.200 248.128 C 207.300 248.001,208.275 247.831,208.367 247.749 C 208.682 247.468,206.199 247.680,205.200 248.020 M242.200 248.000 C 242.860 248.168,243.850 248.305,244.400 248.305 C 245.292 248.305,245.270 248.272,244.200 248.000 C 243.540 247.832,242.550 247.695,242.000 247.695 C 241.108 247.695,241.130 247.728,242.200 248.000 M142.056 249.818 C 142.774 250.818,143.630 251.853,143.959 252.118 C 144.287 252.383,143.779 251.565,142.830 250.300 C 140.787 247.578,140.172 247.195,142.056 249.818 M195.100 248.696 C 196.475 248.774,198.725 248.774,200.100 248.696 C 201.475 248.618,200.350 248.554,197.600 248.554 C 194.850 248.554,193.725 248.618,195.100 248.696 M249.100 248.696 C 250.475 248.774,252.725 248.774,254.100 248.696 C 255.475 248.618,254.350 248.554,251.600 248.554 C 248.850 248.554,247.725 248.618,249.100 248.696 M332.305 249.083 C 332.802 249.179,333.522 249.175,333.905 249.075 C 334.287 248.975,333.880 248.896,333.000 248.901 C 332.120 248.905,331.807 248.987,332.305 249.083 M77.018 250.900 C 77.168 251.395,77.455 251.976,77.656 252.191 C 77.857 252.406,77.819 252.001,77.572 251.291 C 77.065 249.838,76.597 249.508,77.018 250.900 M90.828 250.200 C 90.828 250.420,91.086 251.050,91.400 251.600 C 91.714 252.150,91.972 252.420,91.972 252.200 C 91.972 251.980,91.714 251.350,91.400 250.800 C 91.086 250.250,90.828 249.980,90.828 250.200 M149.400 258.400 C 150.706 259.720,151.865 260.800,151.975 260.800 C 152.085 260.800,151.106 259.720,149.800 258.400 C 148.494 257.080,147.335 256.000,147.225 256.000 C 147.115 256.000,148.094 257.080,149.400 258.400 M129.256 258.218 C 129.974 259.218,130.830 260.253,131.159 260.518 C 131.487 260.783,130.979 259.965,130.030 258.700 C 127.987 255.978,127.372 255.595,129.256 258.218 M63.029 258.400 C 63.176 258.950,63.464 259.670,63.667 260.000 C 63.925 260.417,63.957 260.295,63.771 259.600 C 63.624 259.050,63.336 258.330,63.133 258.000 C 62.875 257.583,62.843 257.705,63.029 258.400 M132.629 262.438 C 133.273 263.229,133.881 263.808,133.979 263.725 C 134.078 263.642,133.551 262.995,132.809 262.287 L 131.458 261.000 132.629 262.438 M83.400 264.400 C 83.741 265.060,84.111 265.600,84.221 265.600 C 84.331 265.600,84.141 265.060,83.800 264.400 C 83.459 263.740,83.089 263.200,82.979 263.200 C 82.869 263.200,83.059 263.740,83.400 264.400 M155.869 264.126 C 157.836 265.738,160.000 267.302,160.000 267.112 C 160.000 266.875,155.273 263.200,154.969 263.200 C 154.842 263.200,155.247 263.617,155.869 264.126 M116.400 265.600 C 116.870 266.260,117.344 266.800,117.454 266.800 C 117.564 266.800,117.270 266.260,116.800 265.600 C 116.330 264.940,115.856 264.400,115.746 264.400 C 115.636 264.400,115.930 264.940,116.400 265.600 M135.600 265.800 C 136.346 266.570,137.047 267.200,137.157 267.200 C 137.267 267.200,136.746 266.570,136.000 265.800 C 135.254 265.030,134.553 264.400,134.443 264.400 C 134.333 264.400,134.854 265.030,135.600 265.800 M301.300 267.476 C 301.685 267.576,302.315 267.576,302.700 267.476 C 303.085 267.375,302.770 267.293,302.000 267.293 C 301.230 267.293,300.915 267.375,301.300 267.476 M297.800 268.214 C 296.800 268.696,296.766 268.751,297.600 268.548 C 298.733 268.271,300.007 267.621,299.400 267.630 C 299.180 267.633,298.460 267.896,297.800 268.214 M293.400 269.814 C 292.400 270.296,292.366 270.351,293.200 270.148 C 294.333 269.871,295.607 269.221,295.000 269.230 C 294.780 269.233,294.060 269.496,293.400 269.814 M102.800 272.200 C 103.481 273.190,104.128 274.000,104.238 274.000 C 104.348 274.000,103.881 273.190,103.200 272.200 C 102.519 271.210,101.872 270.400,101.762 270.400 C 101.652 270.400,102.119 271.210,102.800 272.200 M142.000 272.200 C 142.746 272.970,143.447 273.600,143.557 273.600 C 143.667 273.600,143.146 272.970,142.400 272.200 C 141.654 271.430,140.953 270.800,140.843 270.800 C 140.733 270.800,141.254 271.430,142.000 272.200 M288.600 271.414 C 287.600 271.896,287.566 271.951,288.400 271.748 C 289.533 271.471,290.807 270.821,290.200 270.830 C 289.980 270.833,289.260 271.096,288.600 271.414 M168.800 272.179 C 168.800 272.289,169.340 272.659,170.000 273.000 C 170.660 273.341,171.200 273.531,171.200 273.421 C 171.200 273.311,170.660 272.941,170.000 272.600 C 169.340 272.259,168.800 272.069,168.800 272.179 M123.200 274.200 C 123.946 274.970,124.647 275.600,124.757 275.600 C 124.867 275.600,124.346 274.970,123.600 274.200 C 122.854 273.430,122.153 272.800,122.043 272.800 C 121.933 272.800,122.454 273.430,123.200 274.200 M278.600 274.400 C 278.096 274.617,278.022 274.744,278.400 274.744 C 278.730 274.744,279.360 274.589,279.800 274.400 C 280.304 274.183,280.378 274.056,280.000 274.056 C 279.670 274.056,279.040 274.211,278.600 274.400 M105.200 275.600 C 105.670 276.260,106.144 276.800,106.254 276.800 C 106.364 276.800,106.070 276.260,105.600 275.600 C 105.130 274.940,104.656 274.400,104.546 274.400 C 104.436 274.400,104.730 274.940,105.200 275.600 M272.400 276.000 C 271.596 276.257,271.557 276.323,272.200 276.332 C 272.640 276.338,273.360 276.189,273.800 276.000 C 274.819 275.562,273.768 275.562,272.400 276.000 M126.000 277.047 C 126.000 277.256,127.035 278.411,128.300 279.614 L 130.600 281.800 128.400 279.409 C 127.190 278.094,126.155 276.939,126.100 276.843 C 126.045 276.746,126.000 276.838,126.000 277.047 M180.000 277.133 C 180.330 277.336,181.050 277.624,181.600 277.771 C 182.295 277.957,182.417 277.925,182.000 277.667 C 181.670 277.464,180.950 277.176,180.400 277.029 C 179.705 276.843,179.583 276.875,180.000 277.133 M247.505 280.683 C 248.002 280.779,248.722 280.775,249.105 280.675 C 249.487 280.575,249.080 280.496,248.200 280.501 C 247.320 280.505,247.007 280.587,247.505 280.683 M244.305 281.083 C 244.802 281.179,245.522 281.175,245.905 281.075 C 246.287 280.975,245.880 280.896,245.000 280.901 C 244.120 280.905,243.807 280.987,244.305 281.083 M203.000 282.415 C 204.320 282.579,206.210 282.706,207.200 282.698 C 208.835 282.684,208.780 282.655,206.600 282.385 C 205.280 282.221,203.390 282.094,202.400 282.102 C 200.765 282.116,200.820 282.145,203.000 282.415 M226.800 282.400 L 224.200 282.662 226.400 282.679 C 227.610 282.688,229.950 282.568,231.600 282.412 L 234.600 282.129 232.000 282.134 C 230.570 282.136,228.230 282.256,226.800 282.400 M133.400 284.400 C 134.259 285.280,135.052 286.000,135.162 286.000 C 135.272 286.000,134.659 285.280,133.800 284.400 C 132.941 283.520,132.148 282.800,132.038 282.800 C 131.928 282.800,132.541 283.520,133.400 284.400 M213.900 283.095 C 215.055 283.176,216.945 283.176,218.100 283.095 C 219.255 283.014,218.310 282.948,216.000 282.948 C 213.690 282.948,212.745 283.014,213.900 283.095 M111.200 283.325 C 111.200 283.394,111.785 283.979,112.500 284.625 L 113.800 285.800 112.625 284.500 C 111.530 283.288,111.200 283.016,111.200 283.325 M295.000 285.414 C 294.000 285.896,293.966 285.951,294.800 285.748 C 295.933 285.471,297.207 284.821,296.600 284.830 C 296.380 284.833,295.660 285.096,295.000 285.414 M118.393 290.900 C 122.287 294.894,122.800 295.382,122.800 295.093 C 122.800 295.034,120.865 293.099,118.500 290.793 L 114.200 286.600 118.393 290.900 M166.800 288.600 C 167.350 288.914,167.980 289.172,168.200 289.172 C 168.420 289.172,168.150 288.914,167.600 288.600 C 167.050 288.286,166.420 288.028,166.200 288.028 C 165.980 288.028,166.250 288.286,166.800 288.600 M285.000 288.400 C 284.496 288.617,284.422 288.744,284.800 288.744 C 285.130 288.744,285.760 288.589,286.200 288.400 C 286.704 288.183,286.778 288.056,286.400 288.056 C 286.070 288.056,285.440 288.211,285.000 288.400 M279.200 290.000 C 278.376 290.264,278.341 290.326,279.000 290.354 C 279.440 290.373,280.070 290.213,280.400 290.000 C 281.101 289.547,280.614 289.547,279.200 290.000 M174.000 291.533 C 174.330 291.736,175.050 292.024,175.600 292.171 C 176.295 292.357,176.417 292.325,176.000 292.067 C 175.670 291.864,174.950 291.576,174.400 291.429 C 173.705 291.243,173.583 291.275,174.000 291.533 M271.000 292.000 C 269.981 292.438,271.032 292.438,272.400 292.000 C 273.204 291.743,273.243 291.677,272.600 291.668 C 272.160 291.662,271.440 291.811,271.000 292.000 M265.000 293.200 C 263.922 293.474,263.902 293.506,264.800 293.513 C 265.350 293.517,266.250 293.376,266.800 293.200 C 268.144 292.769,266.692 292.769,265.000 293.200 M124.687 296.809 C 125.395 297.551,126.042 298.078,126.125 297.979 C 126.208 297.881,125.629 297.273,124.838 296.629 L 123.400 295.458 124.687 296.809 M191.600 296.400 C 192.150 296.576,193.050 296.717,193.600 296.713 C 194.498 296.706,194.478 296.674,193.400 296.400 C 191.708 295.969,190.256 295.969,191.600 296.400 M246.900 296.276 C 247.285 296.376,247.915 296.376,248.300 296.276 C 248.685 296.175,248.370 296.093,247.600 296.093 C 246.830 296.093,246.515 296.175,246.900 296.276 M243.905 296.683 C 244.402 296.779,245.122 296.775,245.505 296.675 C 245.887 296.575,245.480 296.496,244.600 296.501 C 243.720 296.505,243.407 296.587,243.905 296.683 M204.000 298.037 C 207.073 298.302,225.722 298.447,225.000 298.200 C 224.780 298.125,219.290 297.999,212.800 297.921 C 206.310 297.842,202.350 297.894,204.000 298.037 M227.500 297.895 C 228.655 297.976,230.545 297.976,231.700 297.895 C 232.855 297.814,231.910 297.748,229.600 297.748 C 227.290 297.748,226.345 297.814,227.500 297.895 M128.200 299.766 C 129.956 301.328,133.200 303.744,133.200 303.490 C 133.200 303.401,131.715 302.208,129.900 300.836 C 128.085 299.465,127.320 298.983,128.200 299.766 M154.400 298.979 C 154.400 299.089,154.940 299.459,155.600 299.800 C 156.260 300.141,156.800 300.331,156.800 300.221 C 156.800 300.111,156.260 299.741,155.600 299.400 C 154.940 299.059,154.400 298.869,154.400 298.979 M164.400 303.831 C 164.400 304.101,166.478 304.856,166.676 304.657 C 166.767 304.567,166.292 304.301,165.620 304.067 C 164.949 303.833,164.400 303.727,164.400 303.831 M168.400 305.533 C 168.730 305.736,169.450 306.024,170.000 306.171 C 170.695 306.357,170.817 306.325,170.400 306.067 C 170.070 305.864,169.350 305.576,168.800 305.429 C 168.105 305.243,167.983 305.275,168.400 305.533 M173.200 307.133 C 173.530 307.336,174.250 307.624,174.800 307.771 C 175.495 307.957,175.617 307.925,175.200 307.667 C 174.870 307.464,174.150 307.176,173.600 307.029 C 172.905 306.843,172.783 306.875,173.200 307.133 M178.200 308.800 C 178.640 308.989,179.270 309.144,179.600 309.144 C 179.978 309.144,179.904 309.017,179.400 308.800 C 178.960 308.611,178.330 308.456,178.000 308.456 C 177.622 308.456,177.696 308.583,178.200 308.800 M192.600 311.980 C 193.834 312.315,196.664 312.518,196.367 312.250 C 196.275 312.168,195.120 312.000,193.800 311.877 C 192.222 311.730,191.811 311.765,192.600 311.980 M215.300 312.687 C 215.905 312.778,216.895 312.778,217.500 312.687 C 218.105 312.595,217.610 312.520,216.400 312.520 C 215.190 312.520,214.695 312.595,215.300 312.687 M206.505 313.087 C 207.114 313.179,208.014 313.177,208.505 313.082 C 208.997 312.987,208.500 312.911,207.400 312.914 C 206.300 312.917,205.897 312.995,206.505 313.087 M219.233 312.949 C 219.645 313.317,222.000 314.400,222.000 314.221 C 222.000 313.990,219.782 312.800,219.353 312.800 C 219.196 312.800,219.142 312.867,219.233 312.949 M222.895 315.433 C 223.277 315.883,223.793 316.834,224.041 317.546 C 224.289 318.258,224.572 318.761,224.670 318.664 C 224.990 318.343,223.740 315.812,222.962 315.207 C 222.227 314.635,222.225 314.643,222.895 315.433 M155.200 316.600 C 155.750 316.914,156.380 317.172,156.600 317.172 C 156.820 317.172,156.550 316.914,156.000 316.600 C 155.450 316.286,154.820 316.028,154.600 316.028 C 154.380 316.028,154.650 316.286,155.200 316.600 M158.000 317.734 C 158.000 317.837,158.581 318.124,159.291 318.372 C 160.001 318.619,160.406 318.657,160.191 318.456 C 159.735 318.029,158.000 317.458,158.000 317.734 M162.400 319.533 C 162.730 319.736,163.450 320.024,164.000 320.171 C 164.695 320.357,164.817 320.325,164.400 320.067 C 164.070 319.864,163.350 319.576,162.800 319.429 C 162.105 319.243,161.983 319.275,162.400 319.533 M167.400 321.414 C 168.060 321.717,168.870 321.958,169.200 321.952 C 169.530 321.945,169.170 321.697,168.400 321.400 C 166.574 320.697,165.855 320.707,167.400 321.414 M172.000 322.741 C 172.330 322.934,173.140 323.209,173.800 323.352 C 174.568 323.518,174.784 323.484,174.400 323.259 C 174.070 323.066,173.260 322.791,172.600 322.648 C 171.832 322.482,171.616 322.516,172.000 322.741 M179.600 324.800 C 180.968 325.238,182.019 325.238,181.000 324.800 C 180.560 324.611,179.840 324.462,179.400 324.468 C 178.757 324.477,178.796 324.543,179.600 324.800 M199.600 327.637 C 202.220 327.909,217.744 328.054,217.000 327.800 C 216.780 327.725,212.190 327.597,206.800 327.516 C 201.410 327.434,198.170 327.489,199.600 327.637 " stroke="none" fill="#7c6c5c" fill-rule="evenodd"></path><path id="path3" d="M196.100 73.076 C 196.485 73.176,197.115 73.176,197.500 73.076 C 197.885 72.975,197.570 72.893,196.800 72.893 C 196.030 72.893,195.715 72.975,196.100 73.076 M215.693 80.000 C 215.693 80.770,215.775 81.085,215.876 80.700 C 215.976 80.315,215.976 79.685,215.876 79.300 C 215.775 78.915,215.693 79.230,215.693 80.000 M206.305 87.883 C 206.802 87.979,207.522 87.975,207.905 87.875 C 208.287 87.775,207.880 87.696,207.000 87.701 C 206.120 87.705,205.807 87.787,206.305 87.883 M200.900 88.276 C 201.285 88.376,201.915 88.376,202.300 88.276 C 202.685 88.175,202.370 88.093,201.600 88.093 C 200.830 88.093,200.515 88.175,200.900 88.276 M211.300 101.498 C 213.445 101.570,216.955 101.570,219.100 101.498 C 221.245 101.426,219.490 101.367,215.200 101.367 C 210.910 101.367,209.155 101.426,211.300 101.498 M208.500 117.476 C 208.885 117.576,209.515 117.576,209.900 117.476 C 210.285 117.375,209.970 117.293,209.200 117.293 C 208.430 117.293,208.115 117.375,208.500 117.476 M222.700 117.482 C 223.195 117.578,224.005 117.578,224.500 117.482 C 224.995 117.387,224.590 117.309,223.600 117.309 C 222.610 117.309,222.205 117.387,222.700 117.482 M239.500 118.682 C 239.995 118.778,240.805 118.778,241.300 118.682 C 241.795 118.587,241.390 118.509,240.400 118.509 C 239.410 118.509,239.005 118.587,239.500 118.682 M76.905 121.487 C 77.514 121.579,78.414 121.577,78.905 121.482 C 79.397 121.387,78.900 121.311,77.800 121.314 C 76.700 121.317,76.297 121.395,76.905 121.487 M140.575 128.900 L 139.400 130.200 140.700 129.025 C 141.415 128.379,142.000 127.794,142.000 127.725 C 142.000 127.416,141.670 127.688,140.575 128.900 M136.175 133.300 L 135.000 134.600 136.300 133.425 C 137.015 132.779,137.600 132.194,137.600 132.125 C 137.600 131.816,137.270 132.088,136.175 133.300 M150.975 140.500 L 149.800 141.800 151.100 140.625 C 152.312 139.530,152.584 139.200,152.275 139.200 C 152.206 139.200,151.621 139.785,150.975 140.500 M147.775 143.700 L 146.600 145.000 147.900 143.825 C 148.615 143.179,149.200 142.594,149.200 142.525 C 149.200 142.216,148.870 142.488,147.775 143.700 M194.700 145.082 C 195.195 145.178,196.005 145.178,196.500 145.082 C 196.995 144.987,196.590 144.909,195.600 144.909 C 194.610 144.909,194.205 144.987,194.700 145.082 M199.100 145.082 C 199.595 145.178,200.405 145.178,200.900 145.082 C 201.395 144.987,200.990 144.909,200.000 144.909 C 199.010 144.909,198.605 144.987,199.100 145.082 M248.505 145.087 C 249.114 145.179,250.014 145.177,250.505 145.082 C 250.997 144.987,250.500 144.911,249.400 144.914 C 248.300 144.917,247.897 144.995,248.505 145.087 M252.905 145.087 C 253.514 145.179,254.414 145.177,254.905 145.082 C 255.397 144.987,254.900 144.911,253.800 144.914 C 252.700 144.917,252.297 144.995,252.905 145.087 M159.375 161.700 L 158.200 163.000 159.500 161.825 C 160.712 160.730,160.984 160.400,160.675 160.400 C 160.606 160.400,160.021 160.985,159.375 161.700 M54.093 185.200 C 54.093 185.970,54.175 186.285,54.276 185.900 C 54.376 185.515,54.376 184.885,54.276 184.500 C 54.175 184.115,54.093 184.430,54.093 185.200 M53.709 190.400 C 53.709 191.390,53.787 191.795,53.882 191.300 C 53.978 190.805,53.978 189.995,53.882 189.500 C 53.787 189.005,53.709 189.410,53.709 190.400 M69.709 191.600 C 69.709 192.590,69.787 192.995,69.882 192.500 C 69.978 192.005,69.978 191.195,69.882 190.700 C 69.787 190.205,69.709 190.610,69.709 191.600 M110.501 193.800 C 110.505 194.680,110.587 194.993,110.683 194.495 C 110.779 193.998,110.775 193.278,110.675 192.895 C 110.575 192.513,110.496 192.920,110.501 193.800 M145.701 194.200 C 145.705 195.080,145.787 195.393,145.883 194.895 C 145.979 194.398,145.975 193.678,145.875 193.295 C 145.775 192.913,145.696 193.320,145.701 194.200 M96.101 194.600 C 96.105 195.480,96.187 195.793,96.283 195.295 C 96.379 194.798,96.375 194.078,96.275 193.695 C 96.175 193.313,96.096 193.720,96.101 194.600 M288.937 197.000 C 288.939 198.760,289.009 199.430,289.093 198.489 C 289.178 197.549,289.177 196.109,289.091 195.289 C 289.005 194.470,288.936 195.240,288.937 197.000 M126.093 195.600 C 126.093 196.370,126.175 196.685,126.276 196.300 C 126.376 195.915,126.376 195.285,126.276 194.900 C 126.175 194.515,126.093 194.830,126.093 195.600 M80.142 199.400 C 80.141 201.380,80.208 202.240,80.292 201.312 C 80.376 200.384,80.377 198.764,80.295 197.712 C 80.212 196.660,80.143 197.420,80.142 199.400 M145.701 199.400 C 145.705 200.280,145.787 200.593,145.883 200.095 C 145.979 199.598,145.975 198.878,145.875 198.495 C 145.775 198.113,145.696 198.520,145.701 199.400 M126.093 204.400 C 126.093 205.170,126.175 205.485,126.276 205.100 C 126.376 204.715,126.376 204.085,126.276 203.700 C 126.175 203.315,126.093 203.630,126.093 204.400 M331.709 204.800 C 331.709 205.790,331.787 206.195,331.882 205.700 C 331.978 205.205,331.978 204.395,331.882 203.900 C 331.787 203.405,331.709 203.810,331.709 204.800 M110.509 206.000 C 110.509 206.990,110.587 207.395,110.682 206.900 C 110.778 206.405,110.778 205.595,110.682 205.100 C 110.587 204.605,110.509 205.010,110.509 206.000 M96.093 206.800 C 96.093 207.570,96.175 207.885,96.276 207.500 C 96.376 207.115,96.376 206.485,96.276 206.100 C 96.175 205.715,96.093 206.030,96.093 206.800 M69.709 207.600 C 69.709 208.590,69.787 208.995,69.882 208.500 C 69.978 208.005,69.978 207.195,69.882 206.700 C 69.787 206.205,69.709 206.610,69.709 207.600 M331.709 211.200 C 331.709 212.190,331.787 212.595,331.882 212.100 C 331.978 211.605,331.978 210.795,331.882 210.300 C 331.787 209.805,331.709 210.210,331.709 211.200 M287.986 233.900 L 285.800 236.200 288.100 234.014 C 290.237 231.982,290.583 231.600,290.286 231.600 C 290.224 231.600,289.189 232.635,287.986 233.900 M196.311 234.293 C 197.251 234.378,198.691 234.377,199.511 234.291 C 200.330 234.205,199.560 234.136,197.800 234.137 C 196.040 234.139,195.370 234.209,196.311 234.293 M251.900 234.282 C 252.395 234.378,253.205 234.378,253.700 234.282 C 254.195 234.187,253.790 234.109,252.800 234.109 C 251.810 234.109,251.405 234.187,251.900 234.282 M243.375 237.700 L 242.200 239.000 243.500 237.825 C 244.215 237.179,244.800 236.594,244.800 236.525 C 244.800 236.216,244.470 236.488,243.375 237.700 M149.600 258.200 C 151.017 259.630,152.267 260.800,152.377 260.800 C 152.487 260.800,151.417 259.630,150.000 258.200 C 148.583 256.770,147.333 255.600,147.223 255.600 C 147.113 255.600,148.183 256.770,149.600 258.200 M138.600 269.200 C 140.128 270.740,141.469 272.000,141.579 272.000 C 141.689 272.000,140.528 270.740,139.000 269.200 C 137.472 267.660,136.131 266.400,136.021 266.400 C 135.911 266.400,137.072 267.660,138.600 269.200 M309.701 275.000 C 309.705 275.880,309.787 276.193,309.883 275.695 C 309.979 275.198,309.975 274.478,309.875 274.095 C 309.775 273.713,309.696 274.120,309.701 275.000 M128.400 279.400 C 129.595 280.610,130.663 281.600,130.773 281.600 C 130.883 281.600,129.995 280.610,128.800 279.400 C 127.605 278.190,126.537 277.200,126.427 277.200 C 126.317 277.200,127.205 278.190,128.400 279.400 M209.500 282.682 C 209.995 282.778,210.805 282.778,211.300 282.682 C 211.795 282.587,211.390 282.509,210.400 282.509 C 209.410 282.509,209.005 282.587,209.500 282.682 M221.300 282.687 C 221.905 282.778,222.895 282.778,223.500 282.687 C 224.105 282.595,223.610 282.520,222.400 282.520 C 221.190 282.520,220.695 282.595,221.300 282.687 M234.100 297.876 C 234.485 297.976,235.115 297.976,235.500 297.876 C 235.885 297.775,235.570 297.693,234.800 297.693 C 234.030 297.693,233.715 297.775,234.100 297.876 M226.307 298.290 C 227.026 298.379,228.106 298.377,228.707 298.286 C 229.308 298.195,228.720 298.122,227.400 298.124 C 226.080 298.126,225.588 298.201,226.307 298.290 M195.300 327.476 C 195.685 327.576,196.315 327.576,196.700 327.476 C 197.085 327.375,196.770 327.293,196.000 327.293 C 195.230 327.293,194.915 327.375,195.300 327.476 " stroke="none" fill="#655b62" fill-rule="evenodd"></path><path id="path4" d="M206.100 72.287 C 206.705 72.378,207.695 72.378,208.300 72.287 C 208.905 72.195,208.410 72.120,207.200 72.120 C 205.990 72.120,205.495 72.195,206.100 72.287 M193.700 73.076 C 194.085 73.176,194.715 73.176,195.100 73.076 C 195.485 72.975,195.170 72.893,194.400 72.893 C 193.630 72.893,193.315 72.975,193.700 73.076 M182.000 74.818 C 181.562 75.115,181.724 75.152,182.600 74.956 C 184.071 74.627,184.390 74.398,183.367 74.406 C 182.945 74.409,182.330 74.595,182.000 74.818 M203.891 88.289 C 204.601 88.377,205.861 88.379,206.691 88.292 C 207.521 88.205,206.940 88.133,205.400 88.131 C 203.860 88.129,203.181 88.200,203.891 88.289 M181.200 91.218 C 180.762 91.515,180.924 91.552,181.800 91.356 C 183.271 91.027,183.590 90.798,182.567 90.806 C 182.145 90.809,181.530 90.995,181.200 91.218 M176.200 92.614 C 175.200 93.096,175.166 93.151,176.000 92.948 C 177.133 92.671,178.407 92.021,177.800 92.030 C 177.580 92.033,176.860 92.296,176.200 92.614 M211.280 101.098 C 213.194 101.171,216.434 101.171,218.480 101.098 C 220.526 101.026,218.960 100.966,215.000 100.965 C 211.040 100.965,209.366 101.024,211.280 101.098 M201.500 101.495 C 202.655 101.576,204.545 101.576,205.700 101.495 C 206.855 101.414,205.910 101.348,203.600 101.348 C 201.290 101.348,200.345 101.414,201.500 101.495 M224.713 101.495 C 225.876 101.576,227.676 101.576,228.713 101.493 C 229.751 101.411,228.800 101.345,226.600 101.346 C 224.400 101.347,223.551 101.414,224.713 101.495 M141.000 109.835 L 139.800 110.866 141.100 110.006 C 141.815 109.533,142.400 109.068,142.400 108.973 C 142.400 108.673,142.231 108.778,141.000 109.835 M132.175 116.900 L 131.000 118.200 132.300 117.025 C 133.512 115.930,133.784 115.600,133.475 115.600 C 133.406 115.600,132.821 116.185,132.175 116.900 M152.600 118.635 L 151.400 119.666 152.700 118.806 C 153.415 118.333,154.000 117.868,154.000 117.773 C 154.000 117.473,153.831 117.578,152.600 118.635 M205.705 117.887 C 206.314 117.979,207.214 117.977,207.705 117.882 C 208.197 117.787,207.700 117.711,206.600 117.714 C 205.500 117.717,205.097 117.795,205.705 117.887 M225.907 117.890 C 226.626 117.979,227.706 117.977,228.307 117.886 C 228.908 117.795,228.320 117.722,227.000 117.724 C 225.680 117.726,225.188 117.801,225.907 117.890 M127.188 121.500 L 124.600 124.200 127.300 121.612 C 128.785 120.188,130.000 118.973,130.000 118.912 C 130.000 118.617,129.593 118.992,127.188 121.500 M72.175 123.700 L 71.000 125.000 72.300 123.825 C 73.015 123.179,73.600 122.594,73.600 122.525 C 73.600 122.216,73.270 122.488,72.175 123.700 M86.101 129.400 C 86.105 130.280,86.187 130.593,86.283 130.095 C 86.379 129.598,86.375 128.878,86.275 128.495 C 86.175 128.113,86.096 128.520,86.101 129.400 M191.500 145.082 C 191.995 145.178,192.805 145.178,193.300 145.082 C 193.795 144.987,193.390 144.909,192.400 144.909 C 191.410 144.909,191.005 144.987,191.500 145.082 M202.305 145.083 C 202.802 145.179,203.522 145.175,203.905 145.075 C 204.287 144.975,203.880 144.896,203.000 144.901 C 202.120 144.905,201.807 144.987,202.305 145.083 M245.505 145.083 C 246.002 145.179,246.722 145.175,247.105 145.075 C 247.487 144.975,247.080 144.896,246.200 144.901 C 245.320 144.905,245.007 144.987,245.505 145.083 M256.305 145.083 C 256.802 145.179,257.522 145.175,257.905 145.075 C 258.287 144.975,257.880 144.896,257.000 144.901 C 256.120 144.905,255.807 144.987,256.305 145.083 M214.386 160.300 L 212.200 162.600 214.500 160.414 C 215.765 159.211,216.800 158.176,216.800 158.114 C 216.800 157.817,216.418 158.163,214.386 160.300 M194.900 159.891 C 195.725 159.978,197.075 159.978,197.900 159.891 C 198.725 159.805,198.050 159.734,196.400 159.734 C 194.750 159.734,194.075 159.805,194.900 159.891 M246.400 159.964 C 245.850 160.120,247.560 160.182,250.200 160.101 C 256.504 159.909,257.330 159.694,251.800 159.686 C 249.380 159.683,246.950 159.808,246.400 159.964 M290.000 161.800 C 290.746 162.570,291.447 163.200,291.557 163.200 C 291.667 163.200,291.146 162.570,290.400 161.800 C 289.654 161.030,288.953 160.400,288.843 160.400 C 288.733 160.400,289.254 161.030,290.000 161.800 M73.646 162.067 C 73.621 162.434,73.496 163.064,73.370 163.467 C 73.152 164.162,73.163 164.163,73.597 163.487 C 73.848 163.096,73.973 162.466,73.873 162.087 C 73.711 161.468,73.688 161.466,73.646 162.067 M100.229 169.429 C 100.081 170.015,100.038 170.572,100.132 170.666 C 100.227 170.760,100.424 170.358,100.571 169.771 C 100.719 169.185,100.762 168.628,100.668 168.534 C 100.573 168.440,100.376 168.842,100.229 169.429 M277.600 170.600 C 278.795 171.810,279.863 172.800,279.973 172.800 C 280.083 172.800,279.195 171.810,278.000 170.600 C 276.805 169.390,275.737 168.400,275.627 168.400 C 275.517 168.400,276.405 169.390,277.600 170.600 M225.578 170.300 L 224.200 171.800 225.700 170.422 C 227.096 169.138,227.384 168.800,227.078 168.800 C 227.012 168.800,226.337 169.475,225.578 170.300 M82.250 174.850 C 81.917 176.517,82.240 176.840,82.600 175.200 C 82.752 174.509,82.793 173.859,82.691 173.758 C 82.589 173.656,82.391 174.147,82.250 174.850 M255.500 179.082 C 255.995 179.178,256.805 179.178,257.300 179.082 C 257.795 178.987,257.390 178.909,256.400 178.909 C 255.410 178.909,255.005 178.987,255.500 179.082 M54.114 182.200 C 54.117 183.300,54.195 183.703,54.287 183.095 C 54.379 182.486,54.377 181.586,54.282 181.095 C 54.187 180.603,54.111 181.100,54.114 182.200 M70.514 182.200 C 70.517 183.300,70.595 183.703,70.687 183.095 C 70.779 182.486,70.777 181.586,70.682 181.095 C 70.587 180.603,70.511 181.100,70.514 182.200 M80.893 184.400 C 80.893 185.170,80.975 185.485,81.076 185.100 C 81.176 184.715,81.176 184.085,81.076 183.700 C 80.975 183.315,80.893 183.630,80.893 184.400 M97.249 183.800 C 97.216 184.240,97.096 185.050,96.983 185.600 L 96.777 186.600 97.206 185.619 C 97.442 185.079,97.561 184.269,97.472 183.819 C 97.313 183.021,97.307 183.021,97.249 183.800 M80.501 187.400 C 80.505 188.280,80.587 188.593,80.683 188.095 C 80.779 187.598,80.775 186.878,80.675 186.495 C 80.575 186.113,80.496 186.520,80.501 187.400 M53.693 187.600 C 53.693 188.370,53.775 188.685,53.876 188.300 C 53.976 187.915,53.976 187.285,53.876 186.900 C 53.775 186.515,53.693 186.830,53.693 187.600 M110.528 190.000 C 110.528 191.430,110.601 192.015,110.689 191.300 C 110.778 190.585,110.778 189.415,110.689 188.700 C 110.601 187.985,110.528 188.570,110.528 190.000 M303.293 190.000 C 303.293 190.770,303.375 191.085,303.476 190.700 C 303.576 190.315,303.576 189.685,303.476 189.300 C 303.375 188.915,303.293 189.230,303.293 190.000 M288.493 193.200 C 288.493 193.970,288.575 194.285,288.676 193.900 C 288.776 193.515,288.776 192.885,288.676 192.500 C 288.575 192.115,288.493 192.430,288.493 193.200 M303.755 197.000 C 303.756 199.860,303.820 200.978,303.897 199.483 C 303.974 197.989,303.974 195.649,303.896 194.283 C 303.818 192.918,303.755 194.140,303.755 197.000 M80.114 194.200 C 80.117 195.300,80.195 195.703,80.287 195.095 C 80.379 194.486,80.377 193.586,80.282 193.095 C 80.187 192.603,80.111 193.100,80.114 194.200 M110.165 199.800 C 110.166 203.760,110.226 205.326,110.298 203.280 C 110.371 201.234,110.371 197.994,110.298 196.080 C 110.224 194.166,110.165 195.840,110.165 199.800 M69.763 199.600 C 69.763 203.230,69.823 204.715,69.898 202.900 C 69.972 201.085,69.972 198.115,69.898 196.300 C 69.823 194.485,69.763 195.970,69.763 199.600 M160.493 195.200 C 160.493 195.970,160.575 196.285,160.676 195.900 C 160.776 195.515,160.776 194.885,160.676 194.500 C 160.575 194.115,160.493 194.430,160.493 195.200 M96.154 200.800 C 96.154 203.550,96.218 204.675,96.296 203.300 C 96.374 201.925,96.374 199.675,96.296 198.300 C 96.218 196.925,96.154 198.050,96.154 200.800 M126.140 200.000 C 126.140 201.870,126.209 202.635,126.293 201.700 C 126.377 200.765,126.377 199.235,126.293 198.300 C 126.209 197.365,126.140 198.130,126.140 200.000 M160.493 198.800 C 160.493 199.570,160.575 199.885,160.676 199.500 C 160.776 199.115,160.776 198.485,160.676 198.100 C 160.575 197.715,160.493 198.030,160.493 198.800 M288.493 200.800 C 288.493 201.570,288.575 201.885,288.676 201.500 C 288.776 201.115,288.776 200.485,288.676 200.100 C 288.575 199.715,288.493 200.030,288.493 200.800 M303.301 203.800 C 303.305 204.680,303.387 204.993,303.483 204.495 C 303.579 203.998,303.575 203.278,303.475 202.895 C 303.375 202.513,303.296 202.920,303.301 203.800 M80.109 204.400 C 80.109 205.390,80.187 205.795,80.282 205.300 C 80.378 204.805,80.378 203.995,80.282 203.500 C 80.187 203.005,80.109 203.410,80.109 204.400 M346.534 208.400 C 346.534 210.050,346.605 210.725,346.691 209.900 C 346.778 209.075,346.778 207.725,346.691 206.900 C 346.605 206.075,346.534 206.750,346.534 208.400 M331.709 208.000 C 331.709 208.990,331.787 209.395,331.882 208.900 C 331.978 208.405,331.978 207.595,331.882 207.100 C 331.787 206.605,331.709 207.010,331.709 208.000 M110.460 209.800 C 110.458 211.120,110.602 212.560,110.780 213.000 C 110.968 213.465,111.026 212.627,110.919 211.000 C 110.678 207.342,110.464 206.784,110.460 209.800 M201.978 211.100 L 200.600 212.600 202.100 211.222 C 203.496 209.938,203.784 209.600,203.478 209.600 C 203.412 209.600,202.737 210.275,201.978 211.100 M301.829 210.629 C 301.681 211.215,301.638 211.772,301.732 211.866 C 301.827 211.960,302.024 211.558,302.171 210.971 C 302.319 210.385,302.362 209.828,302.268 209.734 C 302.173 209.640,301.976 210.042,301.829 210.629 M80.493 211.200 C 80.493 211.970,80.575 212.285,80.676 211.900 C 80.776 211.515,80.776 210.885,80.676 210.500 C 80.575 210.115,80.493 210.430,80.493 211.200 M80.901 214.200 C 80.905 215.080,80.987 215.393,81.083 214.895 C 81.179 214.398,81.175 213.678,81.075 213.295 C 80.975 212.913,80.896 213.320,80.901 214.200 M189.719 214.482 C 189.983 214.650,191.550 214.770,193.200 214.747 C 196.711 214.700,196.211 214.498,192.119 214.309 C 190.534 214.236,189.454 214.314,189.719 214.482 M70.520 217.600 C 70.520 218.810,70.595 219.305,70.687 218.700 C 70.778 218.095,70.778 217.105,70.687 216.500 C 70.595 215.895,70.520 216.390,70.520 217.600 M330.893 219.200 C 330.893 219.970,330.975 220.285,331.076 219.900 C 331.176 219.515,331.176 218.885,331.076 218.500 C 330.975 218.115,330.893 218.430,330.893 219.200 M54.101 220.200 C 54.105 221.080,54.187 221.393,54.283 220.895 C 54.379 220.398,54.375 219.678,54.275 219.295 C 54.175 218.913,54.096 219.320,54.101 220.200 M345.568 221.700 C 345.449 222.560,345.510 223.050,345.712 222.848 C 345.905 222.655,345.998 221.981,345.919 221.349 C 345.787 220.291,345.759 220.319,345.568 221.700 M171.600 223.400 C 172.795 224.610,173.863 225.600,173.973 225.600 C 174.083 225.600,173.195 224.610,172.000 223.400 C 170.805 222.190,169.737 221.200,169.627 221.200 C 169.517 221.200,170.405 222.190,171.600 223.400 M329.246 227.667 C 329.221 228.034,329.096 228.664,328.970 229.067 C 328.752 229.762,328.763 229.763,329.197 229.087 C 329.448 228.696,329.573 228.066,329.473 227.687 C 329.311 227.068,329.288 227.066,329.246 227.667 M158.000 230.910 C 158.000 230.971,159.395 232.366,161.100 234.010 L 164.200 237.000 161.210 233.900 C 158.433 231.021,158.000 230.617,158.000 230.910 M234.386 233.900 L 232.200 236.200 234.500 234.014 C 236.637 231.982,236.983 231.600,236.686 231.600 C 236.624 231.600,235.589 232.635,234.386 233.900 M248.652 234.316 C 248.544 234.490,249.073 234.561,249.828 234.473 C 250.583 234.385,251.200 234.242,251.200 234.156 C 251.200 233.855,248.845 234.003,248.652 234.316 M73.444 237.400 C 73.773 238.871,74.002 239.190,73.994 238.167 C 73.991 237.745,73.805 237.130,73.582 236.800 C 73.285 236.362,73.248 236.524,73.444 237.400 M325.293 242.000 C 325.293 242.770,325.375 243.085,325.476 242.700 C 325.576 242.315,325.576 241.685,325.476 241.300 C 325.375 240.915,325.293 241.230,325.293 242.000 M263.400 247.600 C 262.896 247.817,262.822 247.944,263.200 247.944 C 263.530 247.944,264.160 247.789,264.600 247.600 C 265.104 247.383,265.178 247.256,264.800 247.256 C 264.470 247.256,263.840 247.411,263.400 247.600 M195.317 249.097 C 196.811 249.174,199.151 249.174,200.517 249.096 C 201.882 249.018,200.660 248.955,197.800 248.955 C 194.940 248.956,193.822 249.020,195.317 249.097 M249.317 249.097 C 250.811 249.174,253.151 249.174,254.517 249.096 C 255.882 249.018,254.660 248.955,251.800 248.955 C 248.940 248.956,247.822 249.020,249.317 249.097 M331.900 249.482 C 332.395 249.578,333.205 249.578,333.700 249.482 C 334.195 249.387,333.790 249.309,332.800 249.309 C 331.810 249.309,331.405 249.387,331.900 249.482 M301.100 267.082 C 301.595 267.178,302.405 267.178,302.900 267.082 C 303.395 266.987,302.990 266.909,302.000 266.909 C 301.010 266.909,300.605 266.987,301.100 267.082 M141.600 272.125 C 141.600 272.194,142.185 272.779,142.900 273.425 L 144.200 274.600 143.025 273.300 C 141.930 272.088,141.600 271.816,141.600 272.125 M275.256 274.859 C 274.517 275.072,273.987 275.320,274.079 275.412 C 274.281 275.614,277.200 274.837,277.200 274.581 C 277.200 274.346,276.882 274.391,275.256 274.859 M72.000 276.200 C 72.746 276.970,73.447 277.600,73.557 277.600 C 73.667 277.600,73.146 276.970,72.400 276.200 C 71.654 275.430,70.953 274.800,70.843 274.800 C 70.733 274.800,71.254 275.430,72.000 276.200 M269.200 276.400 C 268.376 276.664,268.341 276.726,269.000 276.754 C 269.440 276.773,270.070 276.613,270.400 276.400 C 271.101 275.947,270.614 275.947,269.200 276.400 M261.600 278.000 C 260.796 278.257,260.757 278.323,261.400 278.332 C 261.840 278.338,262.560 278.189,263.000 278.000 C 264.019 277.562,262.968 277.562,261.600 278.000 M77.300 279.076 C 77.685 279.176,78.315 279.176,78.700 279.076 C 79.085 278.975,78.770 278.893,78.000 278.893 C 77.230 278.893,76.915 278.975,77.300 279.076 M252.200 279.600 C 251.181 280.038,252.232 280.038,253.600 279.600 C 254.404 279.343,254.443 279.277,253.800 279.268 C 253.360 279.262,252.640 279.411,252.200 279.600 M196.800 281.200 C 198.168 281.638,199.219 281.638,198.200 281.200 C 197.760 281.011,197.040 280.862,196.600 280.868 C 195.957 280.877,195.996 280.943,196.800 281.200 M238.657 281.107 C 238.553 281.276,239.172 281.348,240.034 281.265 C 240.895 281.183,241.600 281.045,241.600 280.958 C 241.600 280.660,238.847 280.800,238.657 281.107 M206.900 282.276 C 207.285 282.376,207.915 282.376,208.300 282.276 C 208.685 282.175,208.370 282.093,207.600 282.093 C 206.830 282.093,206.515 282.175,206.900 282.276 M225.105 282.283 C 225.602 282.379,226.322 282.375,226.705 282.275 C 227.087 282.175,226.680 282.096,225.800 282.101 C 224.920 282.105,224.607 282.187,225.105 282.283 M214.115 282.696 C 215.388 282.776,217.368 282.775,218.515 282.694 C 219.662 282.614,218.620 282.549,216.200 282.550 C 213.780 282.551,212.842 282.616,214.115 282.696 M115.183 288.100 C 116.841 289.866,117.200 290.184,117.200 289.883 C 117.200 289.819,116.345 288.964,115.300 287.983 L 113.400 286.200 115.183 288.100 M121.183 294.100 C 122.841 295.866,123.200 296.184,123.200 295.883 C 123.200 295.819,122.345 294.964,121.300 293.983 L 119.400 292.200 121.183 294.100 M187.800 296.000 C 188.240 296.189,188.870 296.344,189.200 296.344 C 189.578 296.344,189.504 296.217,189.000 296.000 C 188.560 295.811,187.930 295.656,187.600 295.656 C 187.222 295.656,187.296 295.783,187.800 296.000 M239.505 297.483 C 240.002 297.579,240.722 297.575,241.105 297.475 C 241.487 297.375,241.080 297.296,240.200 297.301 C 239.320 297.305,239.007 297.387,239.505 297.483 M236.500 297.876 C 236.885 297.976,237.515 297.976,237.900 297.876 C 238.285 297.775,237.970 297.693,237.200 297.693 C 236.430 297.693,236.115 297.775,236.500 297.876 M230.100 298.276 C 230.485 298.376,231.115 298.376,231.500 298.276 C 231.885 298.175,231.570 298.093,230.800 298.093 C 230.030 298.093,229.715 298.175,230.100 298.276 M181.200 309.182 C 181.530 309.405,182.145 309.591,182.567 309.594 C 183.590 309.602,183.271 309.373,181.800 309.044 C 180.924 308.848,180.762 308.885,181.200 309.182 M199.100 312.282 C 199.595 312.378,200.405 312.378,200.900 312.282 C 201.395 312.187,200.990 312.109,200.000 312.109 C 199.010 312.109,198.605 312.187,199.100 312.282 M213.600 312.224 C 214.984 312.528,219.543 312.611,219.092 312.325 C 218.821 312.153,217.340 312.030,215.800 312.053 C 214.260 312.075,213.270 312.152,213.600 312.224 M204.500 312.697 C 205.985 312.774,208.415 312.774,209.900 312.697 C 211.385 312.620,210.170 312.557,207.200 312.557 C 204.230 312.557,203.015 312.620,204.500 312.697 M182.000 325.582 C 182.330 325.805,182.945 325.991,183.367 325.994 C 184.390 326.002,184.071 325.773,182.600 325.444 C 181.724 325.248,181.562 325.285,182.000 325.582 M197.700 327.876 C 198.085 327.976,198.715 327.976,199.100 327.876 C 199.485 327.775,199.170 327.693,198.400 327.693 C 197.630 327.693,197.315 327.775,197.700 327.876 " stroke="none" fill="#344c68" fill-rule="evenodd"></path></g></svg>